<?xml version="1.0" standalone="no"?>
<!DOCTYPE svg PUBLIC "-//W3C//DTD SVG 20010904//EN"
 "http://www.w3.org/TR/2001/REC-SVG-20010904/DTD/svg10.dtd">
<svg version="1.0" xmlns="http://www.w3.org/2000/svg"
 width="1848.713140pt" height="1753.278984pt" viewBox="0 0 1848.713140 1753.278984"
 preserveAspectRatio="xMidYMid meet">

<g transform="translate(-68.000000,1875.000000) scale(0.100000,-0.100000)"
fill="#000000" stroke="none">
<path d="M7880 18712 c-93 -54 -162 -84 -265 -117 -136 -42 -254 -82 -310
-103 -27 -11 -81 -32 -120 -47 -38 -15 -113 -41 -165 -57 -310 -100 -578 -192
-587 -202 -4 -3 -14 -6 -24 -6 -10 0 -33 -6 -51 -14 -18 -8 -76 -28 -128 -45
-99 -31 -151 -49 -185 -62 -11 -4 -42 -14 -70 -23 -27 -9 -84 -26 -125 -39
-66 -21 -100 -31 -220 -67 -14 -4 -54 -16 -90 -25 -36 -10 -96 -28 -135 -40
-38 -13 -151 -48 -250 -80 -99 -31 -189 -60 -200 -64 -11 -5 -45 -16 -75 -25
-30 -10 -64 -21 -75 -26 -11 -5 -49 -18 -84 -30 -319 -106 -696 -272 -879
-387 -127 -81 -383 -293 -489 -407 -111 -118 -292 -349 -375 -476 -68 -103
-218 -356 -218 -366 0 -3 -11 -21 -23 -42 -13 -20 -35 -57 -49 -82 -13 -25
-40 -72 -58 -105 -18 -33 -44 -77 -57 -97 -12 -21 -23 -40 -23 -43 0 -3 -11
-22 -24 -43 -13 -21 -55 -94 -93 -162 -39 -69 -81 -143 -93 -165 -47 -84 -193
-342 -212 -375 -101 -175 -251 -436 -275 -480 -75 -134 -286 -499 -320 -552
-12 -21 -23 -40 -23 -43 0 -2 -18 -34 -40 -70 -22 -36 -40 -68 -40 -70 0 -3
-22 -40 -48 -83 -27 -42 -52 -84 -55 -92 -4 -8 -15 -28 -25 -45 -23 -37 -62
-109 -132 -240 -30 -55 -146 -255 -259 -445 -114 -190 -212 -358 -219 -373 -6
-15 -12 -54 -12 -85 0 -115 97 -231 342 -405 110 -79 489 -317 504 -317 2 0
52 -29 110 -65 59 -36 108 -65 110 -65 2 0 32 -17 66 -38 35 -21 104 -60 153
-86 50 -27 124 -67 165 -89 41 -22 102 -54 135 -72 118 -63 917 -459 1115
-553 294 -138 521 -229 739 -296 70 -21 148 -21 188 2 43 23 104 108 189 264
38 70 72 128 77 128 10 0 9 -96 -2 -161 -5 -30 -17 -108 -26 -174 -9 -66 -20
-142 -25 -170 -40 -222 -46 -513 -16 -765 22 -185 30 -258 45 -410 6 -63 15
-155 21 -205 5 -49 17 -189 25 -310 8 -121 19 -283 25 -360 17 -247 35 -794
32 -990 -4 -309 -21 -809 -32 -965 -26 -350 -41 -552 -50 -640 -32 -327 -52
-522 -71 -710 -6 -58 -14 -157 -19 -220 -4 -63 -13 -162 -19 -220 -11 -114
-24 -265 -46 -548 -8 -101 -15 -256 -15 -345 0 -89 -5 -201 -10 -248 -5 -48
-11 -160 -12 -250 -3 -161 -2 -165 25 -220 15 -31 35 -63 44 -71 25 -22 112
-67 208 -108 159 -68 359 -172 595 -311 181 -106 212 -125 365 -209 33 -18 69
-39 80 -46 66 -42 349 -189 495 -257 241 -111 536 -226 715 -277 58 -17 224
-61 265 -70 310 -73 449 -99 710 -136 191 -26 460 -50 840 -74 85 -5 232 -14
325 -20 251 -16 1264 -17 1460 -2 88 7 214 17 280 22 154 12 431 38 470 44 17
3 91 12 165 21 195 23 308 40 525 81 186 35 429 88 475 103 14 5 54 17 90 26
189 51 566 189 768 281 292 133 601 313 884 515 297 212 573 387 785 499 138
72 275 163 307 203 27 34 31 48 34 112 2 41 -3 120 -12 177 -8 57 -20 166 -26
243 -21 280 -31 413 -40 545 -12 194 -35 447 -61 665 -5 50 -14 131 -19 180
-9 83 -25 231 -50 465 -5 52 -12 111 -15 130 -12 79 -50 528 -65 770 -5 91
-12 183 -15 205 -15 120 -35 878 -35 1365 0 507 17 1033 36 1093 3 9 9 66 14
125 12 141 39 324 76 512 23 116 24 356 5 798 -14 301 -11 342 23 342 7 0 26
-17 42 -37 15 -21 71 -83 124 -138 52 -55 127 -136 165 -180 97 -112 187 -200
226 -222 27 -14 55 -18 129 -17 131 0 207 25 430 139 117 59 450 251 637 367
34 21 65 38 68 38 3 0 74 42 158 93 83 51 199 121 257 154 58 33 167 97 244
142 76 44 140 81 142 81 2 0 33 18 69 40 36 22 67 40 70 40 3 0 34 18 70 40
36 22 67 40 70 40 3 0 84 48 181 106 523 313 885 594 955 743 48 102 38 136
-97 326 -74 102 -118 170 -305 465 -40 63 -177 261 -303 440 -126 179 -247
352 -269 385 -22 33 -71 107 -110 165 -276 411 -601 900 -687 1035 -57 88
-144 223 -195 300 -51 77 -116 178 -145 225 -162 259 -483 741 -611 915 -271
371 -591 666 -939 864 -195 112 -666 317 -955 416 -44 16 -84 31 -90 35 -5 4
-104 37 -220 75 -301 97 -454 148 -580 193 -148 53 -146 52 -175 64 -14 5 -45
17 -70 25 -25 8 -58 21 -75 28 -16 7 -48 19 -70 28 -22 8 -69 26 -105 40 -36
14 -99 37 -140 52 -41 15 -91 33 -110 40 -47 18 -162 58 -230 79 -30 10 -113
40 -185 66 -134 50 -326 120 -405 148 -25 9 -78 38 -119 66 -86 58 -126 63
-206 23 -70 -35 -112 -53 -170 -72 -27 -9 -59 -21 -70 -25 -37 -14 -129 -40
-235 -64 -365 -86 -710 -107 -1345 -81 -627 25 -694 31 -1120 96 -215 33 -579
112 -599 131 -6 4 -16 8 -24 8 -8 0 -50 18 -93 40 -44 22 -94 40 -112 40 -19
0 -58 -15 -97 -38z m6 -152 c2 0 4 -4 4 -10 0 -14 137 -289 195 -390 173 -305
370 -520 705 -771 200 -150 380 -266 555 -359 55 -29 105 -56 110 -60 6 -4 82
-45 170 -91 232 -120 365 -210 365 -247 0 -47 -117 -152 -168 -152 -32 0 -67
23 -207 135 -50 40 -156 110 -235 156 -270 154 -611 375 -815 528 -180 136
-415 364 -520 506 -124 168 -320 510 -363 633 -17 49 -3 66 75 92 37 12 75 26
83 31 8 5 21 6 28 4 8 -3 16 -5 18 -5z m4299 -114 c90 -42 105 -76 75 -167
-24 -71 -45 -110 -138 -254 -107 -166 -142 -217 -200 -290 -81 -103 -363 -380
-477 -469 -55 -42 -154 -119 -220 -170 -66 -52 -199 -146 -295 -211 -151 -102
-399 -282 -472 -344 -13 -10 -108 -91 -213 -179 -194 -163 -273 -246 -322
-343 -24 -47 -27 -66 -28 -144 0 -104 14 -142 72 -199 84 -83 174 -99 254 -46
44 29 76 65 214 244 212 274 431 470 905 811 84 61 158 115 164 120 6 6 46 36
90 69 285 212 621 548 797 796 58 82 202 327 263 446 53 105 66 119 101 110
62 -16 136 -49 145 -65 35 -67 -296 -623 -516 -867 -10 -11 -53 -58 -94 -104
-130 -144 -383 -363 -675 -586 -212 -161 -241 -184 -373 -289 -120 -95 -357
-320 -416 -395 -128 -162 -224 -351 -255 -505 -8 -38 -41 -206 -61 -310 -55
-287 -73 -871 -44 -1430 8 -154 18 -534 23 -845 9 -525 16 -811 41 -1615 16
-517 23 -1339 25 -3090 3 -1922 17 -3469 34 -3700 7 -88 16 -223 22 -300 5
-77 14 -201 20 -275 6 -74 14 -207 19 -295 11 -214 26 -396 81 -970 5 -55 16
-154 24 -220 9 -66 20 -158 25 -205 5 -47 14 -112 20 -145 15 -87 12 -169 -6
-215 -40 -98 -89 -105 -779 -105 -498 0 -533 1 -559 18 l-28 19 5 171 c3 95
12 262 21 372 9 110 21 299 26 420 5 121 17 357 25 525 26 495 34 703 44 1110
12 458 8 6614 -4 7425 -5 361 -4 932 5 1665 10 886 10 1153 1 1300 -23 344
-25 556 -7 686 71 512 133 675 343 907 103 113 254 251 368 337 76 57 126 90
289 193 33 21 227 151 316 212 319 219 700 559 846 755 156 210 191 268 319
530 70 143 75 146 160 106z m-4651 -98 c21 -46 50 -110 64 -143 73 -168 205
-389 284 -476 18 -20 65 -74 105 -120 81 -95 213 -225 323 -319 85 -73 338
-262 450 -337 121 -80 529 -333 539 -333 15 0 166 -112 242 -180 41 -36 87
-77 102 -91 23 -19 28 -30 23 -47 -4 -12 -14 -22 -22 -22 -9 0 -55 33 -102 73
-129 109 -289 223 -480 341 -94 58 -229 148 -302 199 -72 50 -141 99 -153 107
-150 103 -407 314 -533 436 -131 128 -278 306 -355 429 -24 39 -46 72 -50 75
-6 5 -89 149 -89 155 0 2 -18 43 -41 92 -51 110 -83 207 -76 228 13 33 35 12
71 -67z m-290 -18 c19 -7 37 -34 72 -107 178 -375 239 -481 381 -660 74 -94
320 -337 458 -454 55 -46 106 -90 114 -97 26 -25 258 -187 501 -350 315 -212
639 -443 708 -506 52 -48 54 -51 49 -95 -2 -25 -12 -71 -21 -101 -9 -30 -26
-91 -37 -135 -10 -44 -24 -94 -29 -111 -6 -17 -10 -38 -10 -47 0 -9 -5 -19
-10 -22 -14 -8 -40 13 -40 32 0 27 -88 198 -133 258 -60 80 -254 268 -347 337
-41 30 -149 106 -240 168 -382 263 -688 505 -884 698 -205 203 -346 380 -496
627 -110 180 -245 473 -234 507 5 16 51 43 104 61 25 9 67 8 94 -3z m5274 -56
c2 -11 -13 -49 -33 -83 -19 -35 -35 -65 -35 -68 0 -11 -145 -252 -198 -328
-211 -304 -519 -603 -937 -905 -371 -269 -424 -308 -525 -388 -134 -107 -340
-300 -382 -358 -20 -28 -39 -44 -53 -44 -21 0 -65 33 -65 50 0 14 60 70 156
145 49 39 145 116 213 173 68 57 164 131 213 165 511 356 732 532 975 775 250
250 423 478 544 717 39 77 75 148 81 158 12 24 42 18 46 -9z m-5615 -82 c8 -9
37 -62 62 -117 115 -246 152 -317 232 -444 47 -75 97 -152 111 -172 139 -187
187 -244 342 -402 104 -108 324 -300 476 -417 32 -25 128 -93 214 -152 420
-290 538 -377 636 -470 85 -81 172 -199 210 -285 22 -50 66 -176 94 -268 40
-134 67 -323 80 -565 16 -284 18 -10795 2 -11080 -7 -113 -19 -369 -27 -570
-17 -413 -28 -586 -65 -1045 -9 -108 -31 -304 -48 -417 -5 -31 -14 -64 -21
-72 -21 -25 -92 -29 -294 -16 -105 6 -257 15 -337 20 -257 16 -497 44 -775 91
-112 19 -349 65 -405 79 -19 5 -73 18 -120 29 -47 11 -112 27 -145 36 -33 10
-73 21 -90 25 -16 4 -59 18 -95 30 -36 13 -96 34 -135 47 -103 36 -152 55
-245 96 -30 13 -90 39 -133 57 -74 31 -217 102 -317 158 -25 13 -81 44 -125
67 -113 60 -128 69 -352 203 -110 66 -261 155 -334 197 -264 152 -403 241
-452 287 l-50 47 7 143 c8 186 22 344 41 493 29 216 33 248 49 380 9 72 20
179 26 239 6 60 13 118 15 130 3 12 10 68 15 126 5 58 17 166 25 240 8 74 20
196 25 270 5 74 16 209 25 300 40 415 47 557 52 1094 5 543 -4 859 -37 1216
-5 58 -12 146 -15 195 -3 50 -10 135 -16 190 -21 208 -40 382 -49 445 -28 192
-57 373 -80 490 -27 142 -33 171 -46 230 -19 83 -39 170 -55 240 -15 68 -15
308 0 432 25 206 33 403 41 1053 9 622 1 1409 -15 1575 -3 30 -10 138 -15 240
-15 280 -32 477 -66 750 -27 213 -33 265 -49 385 -15 108 -24 169 -54 370 -16
101 -41 257 -51 310 -5 28 -16 91 -25 140 -86 478 -229 844 -449 1144 -59 82
-170 195 -332 338 -165 145 -200 171 -216 155 -13 -13 12 -57 146 -256 246
-362 455 -750 495 -916 65 -273 101 -997 67 -1387 -9 -104 -20 -217 -26 -253
-23 -158 -41 -279 -50 -330 -15 -87 -70 -361 -79 -400 -29 -112 -63 -233 -81
-290 -4 -14 -20 -65 -36 -115 -15 -49 -44 -142 -64 -205 -21 -63 -57 -176 -81
-250 -55 -173 -86 -236 -116 -233 -21 3 -93 36 -498 233 -135 66 -259 132
-445 237 -77 43 -138 77 -210 116 -41 22 -150 82 -243 134 -92 51 -169 93
-171 93 -2 0 -33 16 -68 36 -209 120 -576 294 -773 367 -73 27 -87 -5 274 621
28 49 51 90 51 91 0 1 23 42 51 91 29 49 84 145 124 214 39 69 97 168 127 220
30 52 70 122 88 155 18 33 42 76 53 95 59 104 107 193 107 196 0 3 11 21 24
42 13 21 55 94 93 162 39 69 81 143 93 165 13 22 42 74 65 115 23 41 63 110
89 153 25 43 46 81 46 83 0 2 10 21 23 42 13 20 45 77 71 126 26 49 63 113 82
143 19 29 34 55 34 58 0 3 18 34 40 70 22 36 40 68 40 70 0 15 253 412 309
485 125 165 323 376 456 487 147 122 343 252 480 317 33 15 67 32 76 36 9 5
68 29 130 55 63 25 123 50 134 54 70 30 210 80 315 114 287 93 372 119 600
187 58 17 116 35 130 40 14 4 86 27 160 50 74 23 144 45 155 50 11 4 101 34
200 65 161 51 226 72 345 114 19 7 60 21 90 31 30 10 80 28 110 40 137 53 186
72 205 78 11 3 31 11 45 19 34 18 54 16 73 -5z m6294 -152 c82 -27 267 -93
358 -126 22 -8 193 -66 380 -129 187 -63 392 -133 455 -155 63 -23 133 -47
155 -55 59 -19 277 -103 297 -115 10 -5 22 -10 27 -10 6 0 49 -18 96 -40 47
-22 88 -40 90 -40 7 0 258 -125 320 -160 226 -125 519 -362 554 -449 12 -27
11 -34 -10 -68 -12 -21 -75 -92 -138 -158 -64 -66 -130 -136 -146 -155 -63
-73 -207 -278 -250 -355 -7 -11 -31 -51 -55 -90 -78 -126 -280 -537 -280 -569
0 -7 -4 -16 -9 -21 -4 -6 -21 -46 -36 -90 -15 -44 -33 -93 -40 -110 -30 -68
-105 -343 -133 -485 -56 -282 -90 -571 -111 -940 -27 -459 -31 -592 -36 -1185
-6 -609 -14 -816 -36 -900 -27 -100 -65 -210 -114 -330 -29 -71 -79 -193 -110
-270 -31 -77 -60 -149 -65 -160 -14 -30 -181 -456 -191 -485 -4 -14 -15 -43
-23 -65 -77 -207 -202 -578 -243 -720 -51 -180 -89 -325 -118 -450 -8 -38 -20
-88 -25 -110 -80 -349 -138 -783 -170 -1270 -6 -82 -12 -163 -15 -180 -2 -16
-9 -149 -16 -295 -11 -280 1 -1009 21 -1194 5 -50 15 -145 21 -211 30 -321 32
-332 84 -660 9 -55 20 -119 26 -143 5 -23 9 -52 9 -63 0 -12 7 -53 16 -93 8
-39 19 -91 24 -116 88 -438 228 -853 380 -1125 37 -67 137 -217 169 -255 12
-14 78 -82 147 -151 70 -70 124 -132 120 -137 -10 -17 -119 -90 -306 -206 -96
-60 -246 -155 -332 -212 -167 -110 -365 -234 -373 -234 -3 0 -22 -11 -43 -23
-66 -42 -442 -237 -456 -237 -3 0 -42 -17 -88 -38 -46 -22 -132 -58 -193 -82
-60 -24 -119 -46 -130 -51 -42 -16 -263 -87 -325 -104 -36 -9 -76 -21 -90 -25
-70 -22 -160 -42 -350 -81 -25 -4 -76 -15 -115 -23 -130 -27 -179 -34 -320
-51 -77 -8 -171 -20 -210 -25 -38 -5 -104 -12 -146 -16 -69 -5 -79 -4 -97 14
-22 22 -42 80 -42 121 0 13 -4 40 -9 60 -12 44 -30 176 -42 296 -4 50 -15 153
-24 230 -8 77 -19 190 -24 250 -5 61 -14 157 -20 215 -15 156 -29 360 -46 690
-8 162 -20 367 -26 455 -27 434 -31 801 -39 3635 -8 2780 -13 3257 -39 3810
-6 118 -15 472 -21 785 -12 604 -26 1107 -40 1395 -12 239 -11 892 0 1015 6
55 14 145 19 200 5 55 14 125 20 155 6 30 16 78 21 105 42 219 64 298 122 422
72 157 208 337 346 459 83 73 108 93 242 198 47 37 93 73 103 81 9 8 61 47
115 87 106 78 324 247 332 257 3 4 46 40 95 81 116 96 360 339 456 455 216
260 308 398 463 699 37 72 72 136 78 143 16 20 59 16 155 -17z m-1919 -479 c7
-21 -198 -215 -358 -337 -233 -178 -506 -333 -635 -360 -65 -13 -80 -13 -141
1 -70 16 -224 85 -244 110 -7 8 -9 19 -5 25 6 9 153 110 161 110 3 0 53 30
112 66 172 107 258 192 210 209 -36 13 -290 35 -405 35 -72 0 -165 4 -205 10
-40 5 -140 14 -223 20 -135 9 -231 19 -465 48 -41 6 -82 12 -90 15 -8 3 -27 8
-42 11 -16 4 -28 10 -28 15 0 4 363 11 808 16 444 4 868 10 942 14 74 4 240 7
369 7 189 -1 235 -4 239 -15z m-1098 -1613 c36 -49 38 -71 8 -92 -42 -30 -91
-19 -114 26 -16 31 -12 62 14 91 26 30 59 21 92 -25z m6013 -40 c48 -58 192
-268 301 -443 209 -332 536 -870 536 -880 0 -7 242 -408 289 -480 54 -83 36
-54 203 -329 73 -120 143 -235 155 -255 13 -20 26 -43 30 -51 4 -8 51 -87 105
-175 101 -164 143 -215 178 -215 25 0 120 43 195 90 161 99 175 104 219 69 33
-26 69 -94 61 -117 -10 -29 -120 -100 -263 -167 -358 -171 -621 -316 -897
-495 -71 -47 -134 -87 -140 -89 -5 -2 -36 -21 -68 -43 -32 -21 -61 -38 -64
-38 -2 0 -23 -13 -46 -29 -23 -16 -208 -140 -412 -275 -513 -343 -675 -453
-860 -586 -88 -64 -203 -142 -255 -175 -52 -33 -115 -74 -140 -91 -152 -108
-208 -119 -247 -49 -26 46 -30 107 -8 129 8 8 70 49 137 92 68 43 161 103 208
134 47 31 135 85 195 120 135 77 225 139 225 155 0 10 -58 158 -90 230 -5 11
-34 85 -65 165 -31 80 -59 154 -64 165 -26 62 -37 91 -71 195 -21 63 -46 142
-55 175 -9 33 -23 80 -30 105 -7 25 -18 65 -23 90 -6 25 -16 68 -22 95 -13 56
-24 122 -45 270 -28 192 -37 405 -32 710 6 330 12 373 73 620 14 56 55 184 74
230 4 11 20 54 35 95 15 41 41 103 56 138 16 35 29 66 29 69 0 11 177 359 204
401 14 23 26 44 26 47 0 3 8 18 18 33 11 15 30 45 44 67 14 22 53 85 88 140
82 132 137 205 155 205 7 0 33 -24 58 -52z m2433 -2976 c10 -7 37 -52 48 -82
3 -8 11 -22 18 -31 19 -27 3 -45 -69 -79 -143 -68 -510 -251 -558 -278 -27
-16 -87 -50 -133 -76 -45 -25 -104 -58 -130 -73 -49 -27 -371 -226 -530 -328
-104 -67 -334 -219 -517 -342 -66 -44 -174 -116 -240 -160 -66 -44 -165 -110
-220 -148 -215 -147 -735 -494 -823 -549 -93 -57 -94 -57 -120 -40 -43 27
-102 91 -102 110 0 30 71 86 326 258 137 92 328 221 424 287 96 66 279 190
405 275 127 85 338 228 470 317 206 140 786 507 800 507 3 0 34 18 70 40 36
22 68 40 70 40 3 0 22 11 43 23 118 75 466 249 597 299 22 9 51 20 65 26 29
12 90 15 106 4z m-17312 -29 c180 -67 298 -126 886 -440 41 -22 120 -66 175
-98 55 -32 116 -67 135 -78 19 -11 71 -40 115 -65 365 -207 1171 -609 1475
-735 169 -70 453 -208 483 -234 32 -30 14 -163 -25 -184 -11 -6 -34 -8 -51 -4
-33 6 -46 11 -110 39 -21 9 -42 16 -47 16 -5 0 -48 18 -95 40 -47 22 -90 40
-96 40 -5 0 -17 4 -27 10 -9 5 -71 35 -137 66 -66 30 -142 66 -170 79 -113 53
-924 457 -970 483 -27 16 -88 49 -135 74 -107 57 -151 82 -220 123 -58 35
-330 185 -440 243 -36 19 -75 40 -87 48 -12 7 -122 65 -245 127 -203 104 -272
137 -468 223 -142 63 -185 90 -188 117 -4 31 17 73 54 111 27 26 32 28 88 21
32 -3 77 -13 100 -22z m17529 -333 c29 -23 97 -130 97 -152 0 -18 -39 -37
-195 -94 -128 -48 -426 -193 -599 -293 -49 -28 -90 -51 -92 -51 -2 0 -63 -37
-136 -82 -73 -45 -193 -118 -267 -162 -158 -96 -134 -81 -296 -187 -107 -70
-255 -165 -332 -214 -18 -12 -134 -90 -468 -316 -260 -176 -557 -390 -700
-504 -160 -127 -166 -130 -221 -96 -42 26 -134 119 -134 136 0 20 135 125 309
239 85 55 236 156 335 223 100 67 289 194 421 282 132 88 274 183 315 211 115
78 250 165 425 275 88 54 207 131 265 171 58 39 162 105 232 147 120 72 154
91 323 182 39 21 75 41 80 45 18 13 124 70 223 119 164 82 295 130 378 140 6
0 23 -8 37 -19z m-17781 -6 c24 -9 52 -20 63 -24 45 -19 124 -54 185 -82 110
-50 549 -273 685 -348 28 -15 82 -45 120 -65 117 -63 178 -97 217 -122 21 -12
39 -23 42 -23 2 0 39 -20 82 -44 44 -23 144 -77 224 -119 80 -41 192 -100 250
-131 213 -113 764 -382 975 -476 28 -12 83 -38 123 -56 41 -19 75 -34 77 -34
2 0 39 -16 82 -36 43 -20 107 -49 142 -65 96 -45 121 -65 121 -101 0 -16 -10
-44 -22 -60 l-21 -30 -75 6 c-115 11 -217 38 -357 96 -16 7 -39 16 -50 21 -11
4 -51 22 -88 38 -38 17 -71 31 -73 31 -19 0 -928 441 -1044 506 -25 14 -79 43
-120 64 -41 22 -100 54 -130 71 -58 33 -125 69 -255 139 -44 24 -145 80 -225
125 -210 118 -303 168 -500 266 -201 100 -286 140 -420 195 -87 35 -204 99
-214 116 -13 21 9 70 54 122 27 30 39 36 71 36 21 0 58 -7 81 -16z m13890
-2616 c3 -109 -2 -216 -14 -283 -5 -33 -14 -87 -18 -120 -5 -33 -17 -114 -28
-180 -34 -204 -42 -265 -52 -403 -5 -74 -12 -148 -15 -165 -2 -18 -10 -213
-16 -435 -15 -580 2 -1390 42 -1917 6 -77 14 -196 19 -265 5 -69 16 -201 25
-295 9 -93 20 -210 25 -260 5 -49 13 -124 19 -165 5 -41 15 -120 20 -175 6
-55 16 -143 22 -195 44 -394 93 -1186 94 -1507 0 -171 -1 -184 -21 -203 -19
-20 -21 -20 -35 -3 -24 29 -49 147 -85 403 -28 203 -44 310 -74 475 -12 68
-26 160 -41 255 -5 36 -12 72 -14 80 -3 9 -9 47 -15 85 -8 64 -26 171 -50 315
-5 30 -17 96 -25 145 -9 50 -19 119 -24 155 -5 36 -14 97 -20 135 -135 810
-197 1827 -173 2820 11 434 15 498 48 705 19 125 32 185 60 298 67 259 232
673 302 755 31 35 42 21 44 -55z m147 -6739 c45 -16 42 -48 -11 -94 -48 -41
-127 -91 -301 -189 -65 -37 -202 -126 -303 -199 -571 -408 -799 -553 -1140
-721 -120 -60 -228 -112 -239 -117 -11 -4 -38 -15 -60 -25 -88 -36 -102 -42
-150 -59 -27 -10 -54 -22 -60 -25 -5 -4 -21 -10 -35 -12 -14 -3 -65 -20 -115
-38 -77 -28 -131 -44 -315 -90 -84 -21 -168 -41 -210 -49 -25 -5 -76 -16 -115
-25 -74 -17 -193 -40 -285 -56 -30 -5 -91 -16 -135 -25 -44 -8 -118 -20 -165
-25 -47 -6 -92 -13 -99 -16 -33 -11 -467 -50 -726 -64 -99 -5 -245 -14 -325
-20 -467 -32 -1843 21 -2315 89 -200 29 -327 51 -420 71 -22 5 -71 17 -110 25
-151 34 -226 52 -325 79 -30 8 -84 22 -120 31 -74 20 -260 80 -305 100 -16 7
-64 25 -105 40 -87 32 -114 43 -193 79 -32 14 -60 26 -62 26 -8 0 -546 268
-605 301 -30 17 -153 91 -273 165 -119 74 -219 134 -222 134 -3 0 -53 29 -110
65 -58 36 -108 65 -110 65 -3 0 -33 17 -67 38 -35 21 -135 76 -223 121 -216
112 -270 166 -214 217 34 31 157 26 234 -10 106 -49 239 -115 290 -144 81 -46
212 -120 263 -149 51 -28 106 -61 137 -80 11 -7 37 -23 59 -35 21 -13 46 -28
55 -33 30 -18 236 -141 276 -165 22 -13 67 -39 100 -58 66 -38 320 -166 418
-211 60 -28 158 -68 282 -116 33 -13 94 -37 135 -53 172 -69 457 -151 645
-186 17 -3 66 -13 110 -22 44 -9 103 -20 130 -24 28 -5 73 -13 100 -18 100
-20 258 -42 515 -72 341 -40 1722 -65 2200 -41 360 19 583 37 810 67 63 8 151
20 195 25 321 41 651 103 825 154 25 7 72 21 105 30 96 28 218 66 240 74 11 5
38 15 60 24 141 54 452 187 524 224 364 189 579 318 926 558 165 114 249 170
330 218 11 7 44 27 75 46 57 36 302 159 356 180 17 7 53 16 80 20 27 5 52 9
55 10 3 0 20 -4 38 -10z"/>
<path d="M9983 15475 c-94 -29 -195 -111 -220 -178 -25 -69 -10 -179 38 -285
36 -76 106 -152 140 -152 113 0 320 160 358 278 13 38 13 49 -4 100 -35 113
-121 209 -214 241 -41 13 -45 13 -98 -4z m62 -221 c9 -9 15 -28 13 -43 -3 -23
-8 -26 -45 -29 -53 -4 -83 11 -83 43 0 39 84 60 115 29z"/>
<path d="M9993 13676 c-81 -26 -153 -92 -200 -185 -22 -44 -28 -67 -26 -115 2
-89 29 -141 115 -224 60 -59 79 -72 106 -72 82 0 218 103 277 211 42 76 42
163 1 231 -37 64 -116 133 -173 152 -54 18 -46 18 -100 2z m72 -291 c0 -17 -8
-20 -46 -23 -31 -2 -50 2 -58 12 -21 25 -3 37 52 34 44 -3 52 -6 52 -23z"/>
<path d="M9962 11768 c-54 -26 -133 -113 -166 -182 -69 -146 14 -349 172 -418
43 -19 47 -19 98 -3 142 44 264 188 264 311 0 127 -95 271 -199 302 -57 17
-120 14 -169 -10z m145 -254 c12 -32 -11 -49 -68 -49 -42 0 -54 4 -57 17 -7
37 111 67 125 32z"/>
<path d="M10040 9251 c-57 -12 -95 -37 -149 -97 -97 -110 -117 -197 -71 -319
27 -71 124 -175 183 -194 32 -11 43 -9 95 11 75 31 122 68 179 143 112 147
111 249 -6 370 -70 73 -149 103 -231 86z m120 -265 c0 -44 -64 -71 -111 -46
-21 12 -26 56 -6 63 6 3 36 6 65 6 49 1 52 -1 52 -23z"/>
<path d="M10069 6457 c-89 -33 -170 -100 -205 -168 -20 -40 -24 -63 -24 -130
0 -101 29 -169 98 -229 104 -92 241 -76 346 41 59 66 87 127 94 205 4 52 0 70
-21 115 -62 132 -187 203 -288 166z m79 -253 c32 -9 28 -40 -8 -59 -36 -19
-54 -19 -69 -1 -15 18 -4 45 23 56 26 11 26 11 54 4z"/>
<path d="M9965 4487 c-102 -49 -175 -161 -175 -268 0 -104 47 -188 153 -272
51 -41 65 -47 105 -47 29 0 63 8 87 21 55 29 141 114 176 174 25 43 29 60 29
128 0 90 -17 133 -82 203 -54 59 -90 75 -173 81 -59 3 -78 0 -120 -20z m139
-227 c52 -19 26 -70 -36 -70 -31 0 -41 5 -50 25 -21 46 24 69 86 45z"/>
<path d="M12053 14523 c-50 -33 -240 -221 -307 -303 -29 -36 -59 -80 -66 -98
-10 -27 -11 -107 -6 -405 5 -205 11 -653 15 -997 5 -472 10 -632 19 -655 19
-43 49 -73 212 -208 80 -67 183 -155 230 -195 47 -41 101 -85 120 -97 l36 -22
659 -4 660 -4 45 29 c25 16 89 68 144 115 54 47 144 126 200 174 138 121 275
256 292 290 12 22 15 140 20 695 2 367 9 759 14 872 15 301 13 401 -6 428 -47
68 -366 354 -439 395 -14 8 -277 12 -912 13 l-892 2 -38 -25z m554 -535 c11
-13 25 -39 31 -58 26 -84 54 -1572 32 -1667 -16 -63 -59 -113 -100 -113 -80 0
-231 122 -263 212 -19 52 -38 652 -37 1173 1 389 1 392 92 444 48 28 62 31
139 31 76 0 88 -2 106 -22z m1085 -7 c53 -20 61 -47 71 -239 9 -187 1 -1147
-11 -1293 -6 -71 -12 -93 -35 -127 -47 -67 -183 -164 -280 -198 -33 -12 -43
-12 -65 0 -85 44 -83 25 -103 1097 -12 593 -9 711 15 745 7 9 33 21 57 25 58
11 317 3 351 -10z"/>
</g>
</svg>
