<?xml version="1.0" standalone="no"?>
<!DOCTYPE svg PUBLIC "-//W3C//DTD SVG 20010904//EN"
 "http://www.w3.org/TR/2001/REC-SVG-20010904/DTD/svg10.dtd">
<svg version="1.0" xmlns="http://www.w3.org/2000/svg"
 width="557.336778pt" height="504.836546pt" viewBox="0 0 557.336778 504.836546"
 preserveAspectRatio="xMidYMid meet">

<g transform="translate(-235.563769,752.836546) scale(0.100000,-0.100000)"
fill="#000000" stroke="none">
<path d="M2958 7515 c-97 -53 -173 -552 -139 -911 28 -284 98 -640 187 -952
40 -139 42 -156 30 -180 -29 -56 -87 -261 -106 -377 -50 -294 -31 -588 54
-855 14 -41 21 -78 18 -81 -4 -3 -43 -14 -87 -24 -98 -22 -210 -62 -303 -109
-73 -37 -210 -135 -252 -182 -14 -15 7 -3 50 28 127 94 261 152 471 203 142
34 144 34 165 -20 9 -25 36 -74 59 -110 l43 -65 -42 -10 c-228 -59 -463 -189
-621 -344 -38 -38 -61 -63 -50 -55 11 7 34 27 50 43 47 46 186 133 292 182
119 56 169 75 298 114 l100 30 25 -28 c14 -16 51 -59 83 -97 l58 -67 -144 -82
c-158 -90 -289 -186 -362 -268 -102 -113 -205 -283 -205 -336 0 -21 6 -14 24
30 62 150 273 359 491 485 98 57 212 113 229 113 7 0 40 -25 72 -56 33 -30
102 -87 155 -126 l97 -71 -14 -33 c-7 -18 -17 -58 -20 -89 -6 -49 -14 -67 -56
-119 -60 -73 -116 -168 -174 -290 -51 -108 -74 -193 -74 -270 l0 -56 660 0
660 0 47 34 c111 79 514 264 763 351 224 78 232 81 432 160 205 82 409 176
471 219 l37 25 0 -23 c0 -96 -75 -272 -174 -410 -31 -43 -55 -80 -53 -82 6 -6
102 63 159 115 30 27 70 73 89 100 19 28 36 51 39 51 10 0 123 -185 155 -254
19 -39 47 -116 63 -171 l30 -100 72 -3 73 -3 -7 53 c-19 146 -123 368 -240
514 l-73 91 -6 84 c-3 46 -8 91 -11 99 -5 12 16 31 76 73 46 31 117 86 158
122 41 36 80 65 85 65 6 0 62 -26 125 -58 289 -145 537 -360 621 -537 16 -33
29 -51 29 -40 0 35 -55 137 -120 223 -109 145 -323 312 -533 417 l-95 48 81
94 c96 109 73 106 275 42 214 -69 449 -191 557 -290 25 -23 45 -37 45 -31 0
18 -100 100 -215 177 -130 87 -285 163 -433 211 -58 18 -107 35 -109 37 -2 2
16 33 40 70 24 36 51 84 62 106 10 23 25 41 34 41 36 -1 203 -42 306 -76 127
-42 225 -89 309 -148 93 -65 104 -71 61 -31 -134 125 -429 266 -627 301 -21 3
-38 9 -38 13 0 4 11 40 24 79 82 241 107 580 61 847 -21 125 -68 295 -103 369
l-29 62 33 100 c98 298 184 765 200 1084 15 314 -54 709 -139 798 -45 46 -87
42 -277 -32 -226 -88 -568 -310 -881 -572 -52 -44 -128 -107 -170 -141 l-76
-62 -76 24 c-190 61 -400 88 -672 88 -298 0 -530 -32 -718 -100 -58 -21 -71
-22 -85 -11 -9 7 -80 65 -157 128 -420 347 -757 564 -1047 676 -95 37 -129 41
-170 19z m257 -429 c309 -105 706 -336 889 -518 l100 -99 85 40 c104 47 225
85 346 106 218 38 699 42 915 9 143 -22 274 -60 383 -112 81 -38 100 -43 107
-31 73 130 374 346 695 499 108 51 316 132 323 126 1 -2 -17 -15 -42 -30 -54
-31 -317 -228 -401 -300 -115 -97 -225 -199 -225 -207 0 -4 28 5 63 21 96 43
307 108 457 140 74 15 136 27 138 25 2 -2 -21 -11 -50 -20 -29 -10 -57 -21
-63 -25 -5 -4 -64 -31 -130 -61 -137 -61 -267 -133 -407 -226 -103 -67 -123
-86 -60 -55 87 44 433 93 524 75 29 -6 23 -9 -53 -29 -97 -26 -299 -113 -342
-147 l-29 -22 129 -2 c104 -1 147 -6 228 -28 55 -14 102 -29 105 -32 3 -3 -7
-3 -21 0 -70 17 -318 47 -387 47 -99 0 -120 -13 -50 -29 59 -13 204 -86 306
-155 76 -51 190 -151 181 -160 -8 -9 -213 58 -253 84 -66 40 -47 15 38 -52
117 -92 254 -265 330 -416 162 -323 200 -764 97 -1119 -16 -54 -38 -120 -49
-148 l-20 -50 -88 5 c-49 3 -204 4 -344 4 -231 -1 -275 -4 -465 -33 -116 -17
-223 -31 -238 -31 -17 0 -27 -5 -27 -15 0 -21 14 -20 335 20 339 43 536 53
698 35 64 -7 117 -15 117 -18 0 -12 -103 -188 -122 -209 -17 -18 -25 -20 -40
-12 -19 10 -168 45 -403 95 -141 30 -418 66 -440 58 -27 -11 -7 -22 52 -29
174 -21 649 -108 776 -143 l28 -7 -64 -75 c-105 -123 -80 -118 -247 -54 -209
79 -365 129 -527 169 -162 40 -163 40 -163 22 0 -9 37 -24 108 -41 147 -38
478 -140 586 -182 48 -19 94 -34 102 -34 26 0 14 -18 -53 -80 -222 -204 -598
-370 -978 -434 -182 -30 -286 -37 -561 -37 -399 0 -572 18 -815 85 -284 78
-489 184 -686 356 -84 72 -97 93 -65 103 9 3 60 22 112 42 165 63 343 119 544
170 149 38 162 43 149 56 -10 10 -209 -29 -336 -66 -85 -24 -173 -57 -409
-151 l-108 -42 -54 56 c-29 32 -68 73 -85 94 l-31 36 42 16 c24 9 66 21 93 26
101 21 453 80 565 95 173 24 180 25 180 35 0 29 -265 -4 -560 -69 -96 -21
-195 -42 -220 -46 -25 -4 -61 -13 -82 -21 l-37 -13 -38 62 c-45 72 -89 165
-81 172 2 3 93 10 201 17 232 14 364 6 671 -42 192 -30 313 -36 309 -15 -2 6
-20 11 -40 13 -21 2 -109 14 -197 28 -253 39 -381 47 -609 40 -115 -3 -241 -9
-281 -13 l-73 -6 -21 59 c-64 175 -92 339 -92 536 0 437 123 798 357 1047 45
48 107 105 137 126 31 21 56 40 56 42 0 2 -21 -7 -47 -20 -57 -29 -242 -91
-249 -84 -9 9 142 141 222 193 99 65 216 122 267 130 44 8 46 14 9 36 -15 9
-52 32 -83 51 -68 42 -217 103 -314 128 l-70 18 140 -4 c153 -5 286 -24 386
-54 l64 -20 -39 34 c-54 46 -293 173 -473 251 -196 86 -190 83 -175 83 21 1
238 -47 325 -73 78 -23 111 -34 235 -85 30 -12 52 -17 50 -12 -8 22 -456 372
-609 476 -61 41 -109 75 -107 75 2 0 35 -11 73 -24z m577 -854 c4 -4 -38 -8
-92 -9 -53 -1 -139 -9 -190 -18 -51 -8 -95 -14 -97 -11 -5 5 164 44 217 50 44
5 153 -3 162 -12z"/>
<path d="M4774 6606 c-176 -56 -274 -178 -337 -416 -27 -103 -30 -131 -31
-275 -1 -130 3 -172 18 -223 10 -34 21 -61 23 -58 3 2 -2 28 -11 58 -54 187
-12 423 105 598 105 155 238 271 354 310 36 12 65 24 65 26 0 13 -125 -1 -186
-20z"/>
<path d="M5296 6621 c5 -5 26 -14 46 -20 132 -43 316 -233 408 -422 58 -120
73 -203 67 -357 -3 -70 -8 -140 -11 -157 -3 -17 1 -10 10 15 24 71 29 258 10
370 -21 119 -78 291 -117 351 -42 66 -140 156 -196 180 -70 30 -241 62 -217
40z"/>
<path d="M5060 6035 c-14 -95 -9 -145 26 -295 13 -58 27 -116 30 -130 10 -44
76 232 78 325 1 89 -11 178 -23 170 -5 -2 -12 -26 -15 -52 -4 -27 -13 -66 -20
-88 l-12 -40 -23 98 c-12 53 -24 97 -26 97 -1 0 -8 -38 -15 -85z"/>
<path d="M3964 5320 c-29 -5 -95 -25 -148 -44 -53 -19 -114 -37 -136 -41 -22
-4 -40 -10 -40 -14 0 -31 77 -238 107 -291 57 -97 154 -190 248 -236 99 -49
166 -54 318 -25 175 34 293 24 316 -26 6 -13 17 -23 24 -21 19 7 20 74 2 157
-48 214 -153 369 -320 470 -98 60 -260 90 -371 71z m374 -160 c23 -16 48 -41
57 -54 14 -21 14 -28 1 -59 -16 -39 -41 -57 -80 -57 -38 0 -55 10 -71 41 -32
61 -5 151 46 158 3 1 25 -12 47 -29z m-428 -266 c19 -37 55 -85 86 -114 60
-57 58 -64 -7 -18 -119 85 -152 138 -153 244 -1 49 4 76 14 89 14 17 16 11 21
-59 5 -59 14 -93 39 -142z m594 -57 c-21 -66 -50 -107 -74 -107 -16 0 -14 6
15 49 18 28 41 72 51 98 25 63 31 30 8 -40z"/>
<path d="M6080 5316 c-115 -30 -231 -97 -312 -183 -111 -117 -196 -327 -186
-462 4 -51 19 -62 38 -27 7 14 26 30 43 36 48 16 165 12 267 -11 224 -49 397
12 528 187 54 73 84 137 125 269 14 44 28 88 32 98 6 14 1 17 -29 17 -19 0
-59 10 -88 21 -156 63 -308 83 -418 55z m181 -135 c43 -43 49 -72 23 -126 -33
-69 -113 -65 -148 9 -19 40 -20 64 -6 103 24 65 75 70 131 14z m134 -101 c18
-34 20 -145 4 -187 -12 -32 -50 -74 -94 -106 l-30 -22 23 32 c52 73 75 141 76
229 0 46 2 84 3 84 1 0 9 -13 18 -30z m-531 -317 l51 -46 -35 8 c-86 18 -140
85 -140 175 l1 45 36 -68 c21 -40 57 -87 87 -114z"/>
<path d="M4868 4439 c-51 -26 -63 -51 -43 -89 24 -46 55 -62 94 -49 28 10 37
9 59 -8 23 -17 28 -29 30 -74 2 -40 9 -61 26 -79 32 -34 46 -64 46 -97 0 -45
-43 -125 -92 -169 -58 -53 -177 -123 -253 -147 -81 -26 -224 -25 -325 1 -41
11 -77 18 -79 16 -7 -6 150 -76 204 -90 158 -43 327 8 473 142 94 85 118 84
221 -10 72 -66 137 -101 239 -127 90 -23 168 -24 246 -4 62 16 206 79 206 90
0 4 -8 4 -17 0 -78 -33 -299 -45 -390 -21 -135 36 -255 113 -321 204 -61 86
-64 136 -14 206 24 36 32 57 32 91 0 69 48 105 99 73 26 -16 45 -5 80 43 28
37 29 43 16 62 -42 60 -137 75 -241 36 l-56 -21 -55 21 c-68 26 -136 26 -185
0z"/>
<path d="M4303 3813 c-40 -15 -71 -29 -68 -31 7 -7 165 41 165 50 0 13 -19 9
-97 -19z"/>
<path d="M5870 3832 c0 -9 119 -56 126 -50 4 5 -106 58 -120 58 -3 0 -6 -3 -6
-8z"/>
</g>
</svg>
