<svg width="205" height="49" viewBox="0 0 205 49" fill="none" xmlns="http://www.w3.org/2000/svg">
<path d="M25.984 41.368C26.1973 42.648 26.5173 43.7787 26.944 44.76C27.0293 45.144 27.136 45.5067 27.264 45.848C27.392 46.1893 27.52 46.552 27.648 46.936C27.5627 47.192 27.4773 47.32 27.392 47.32C27.2213 47.32 26.88 47.2987 26.368 47.256C25.856 47.2133 24.8107 47.1493 23.232 47.064C22.2933 47.0213 21.4827 47 20.8 47C20.1173 47 19.5627 46.936 19.136 46.808C18.88 46.1253 18.6027 45.3573 18.304 44.504C18.048 43.6507 17.7707 42.7973 17.472 41.944C17.216 41.048 16.9387 40.1947 16.64 39.384C16.384 38.5307 16.128 37.784 15.872 37.144L15.616 36.888C15.104 36.9307 14.5707 36.952 14.016 36.952C13.504 36.9093 13.0133 36.9947 12.544 37.208C12.9707 37.336 13.376 37.4213 13.76 37.464C14.1867 37.464 14.6133 37.5067 15.04 37.592C14.8693 37.6347 14.6987 37.656 14.528 37.656C14.4427 37.656 14.4 37.6773 14.4 37.72C14.144 37.72 13.8667 37.6987 13.568 37.656C13.312 37.5707 13.056 37.528 12.8 37.528C12.2027 37.528 11.8187 37.72 11.648 38.104C11.52 38.7013 11.3707 39.384 11.2 40.152C11.0293 40.92 10.8373 41.7093 10.624 42.52C10.4533 43.288 10.2827 44.056 10.112 44.824C9.94133 45.592 9.792 46.2533 9.664 46.808C9.45067 47.0213 9.17333 47.128 8.832 47.128C8.61867 47.128 8.384 47.0853 8.128 47C7.872 46.9573 7.63733 46.936 7.424 46.936C7.168 46.936 7.01867 46.9573 6.976 47L6.848 46.872C5.78133 46.9147 4.69333 46.936 3.584 46.936C2.47467 46.8933 1.408 46.936 0.384 47.064C0.341333 46.9787 0.277333 46.936 0.192 46.936C0.106667 46.936 0.064 46.8933 0.064 46.808C0.064 46.7227 0.064 46.7013 0.064 46.744C0.106667 46.7867 0.170667 46.68 0.256 46.424L0.512 46.04C0.384 45.912 0.32 45.8053 0.32 45.72C0.32 45.592 0.384 45.464 0.512 45.336C0.64 45.208 0.725333 45.0587 0.768 44.888C1.10933 42.84 1.49333 40.6427 1.92 38.296C2.38933 35.9493 2.77333 33.752 3.072 31.704C2.944 31.704 2.77333 32.1733 2.56 33.112C2.34667 34.008 2.112 35.096 1.856 36.376C1.6 37.656 1.32267 39 1.024 40.408C0.768 41.7733 0.512 42.9253 0.256 43.864C0.981333 40.1093 1.68533 36.2053 2.368 32.152C3.05067 28.056 3.86133 24.1307 4.8 20.376C4.8 20.6747 4.77867 20.888 4.736 21.016V21.784C5.33333 19.352 5.90933 16.9627 6.464 14.616C7.06133 12.2693 7.59467 9.88 8.064 7.448C7.97867 7.53333 7.91467 7.66133 7.872 7.832C7.82933 7.96 7.76533 8.088 7.68 8.216C7.72267 7.74666 7.85067 7.21333 8.064 6.616C8.27733 5.976 8.53333 5.35733 8.832 4.76C9.13067 4.16267 9.45067 3.608 9.792 3.096C10.176 2.584 10.56 2.2 10.944 1.944H12.032C13.7813 1.944 15.0187 1.90133 15.744 1.816C16.512 1.73067 17.152 1.688 17.664 1.688C18.176 3.736 18.6667 5.74133 19.136 7.704C19.6053 9.624 20.0107 11.608 20.352 13.656C20.352 14.0827 20.48 14.4453 20.736 14.744C20.992 15 21.12 15.2987 21.12 15.64C21.0773 15.6827 21.056 15.7253 21.056 15.768C21.056 15.8107 21.0347 15.8533 20.992 15.896C20.992 15.9387 20.992 16.0027 20.992 16.088C21.376 17.4107 21.6747 18.776 21.888 20.184C22.1013 21.5493 22.4427 22.872 22.912 24.152C23.1253 25.432 23.3813 26.7547 23.68 28.12C24.0213 29.4427 24.256 30.744 24.384 32.024C24.7253 32.7067 24.896 33.4747 24.896 34.328C24.896 35.1387 25.024 35.9067 25.28 36.632C25.4933 36.7173 25.6 36.8453 25.6 37.016C25.6 37.1867 25.6213 37.3573 25.664 37.528C25.4933 37.528 25.408 37.6133 25.408 37.784C25.6213 38.8507 25.8133 40.0453 25.984 41.368ZM24.064 45.784C24.576 45.784 25.1307 45.7627 25.728 45.72H26.24L25.92 43.8C25.7067 42.4773 25.408 41.176 25.024 39.896C24.6827 38.616 24.32 37.4213 23.936 36.312C23.5947 35.2027 23.296 34.2213 23.04 33.368C22.784 32.5147 22.656 31.8533 22.656 31.384V31.192C22.656 30.8933 22.6133 30.552 22.528 30.168C22.4427 29.784 22.3147 29.272 22.144 28.632C21.9733 27.9493 21.7387 27.1173 21.44 26.136C21.1413 25.112 20.8 23.7893 20.416 22.168C20.3733 22.0827 20.352 22.0187 20.352 21.976C20.352 21.8907 20.3307 21.8053 20.288 21.72C20.3733 21.72 20.9493 23.2773 22.016 26.392C22.1013 26.52 22.1867 26.6693 22.272 26.84C22.4 26.968 22.464 27.1173 22.464 27.288V27.48H22.336C22.4213 27.6933 22.464 27.8853 22.464 28.056C22.5067 28.2267 22.5707 28.3973 22.656 28.568C22.6987 28.568 22.7627 28.5253 22.848 28.44C22.7627 28.3547 22.72 28.2907 22.72 28.248C22.72 28.1627 22.7627 28.0987 22.848 28.056C22.9333 28.0133 22.976 27.9493 22.976 27.864C22.6347 26.6267 22.3573 25.3253 22.144 23.96C21.9307 22.552 21.632 21.272 21.248 20.12V19.736C21.248 18.7547 21.0133 17.7947 20.544 16.856C20.1173 15.8747 19.8613 14.936 19.776 14.04V14.296C19.776 14.3387 19.8187 14.5307 19.904 14.872C19.776 15.128 19.712 15.3413 19.712 15.512C19.712 15.8533 19.776 16.1733 19.904 16.472C20.032 16.7707 20.096 17.0693 20.096 17.368C20.096 17.496 20.0533 17.56 19.968 17.56L19.904 17.368C19.904 17.2827 19.8827 17.24 19.84 17.24L19.712 17.688C19.6267 16.3227 19.3493 14.6587 18.88 12.696C18.4107 10.6907 17.9627 8.536 17.536 6.232L17.6 6.296L17.28 3.928C17.28 3.45867 17.088 3.224 16.704 3.224C16.576 3.224 16.4267 3.24533 16.256 3.288C16.128 3.288 15.9787 3.288 15.808 3.288C15.5947 3.288 15.4453 3.24533 15.36 3.16C15.488 3.032 15.552 2.94667 15.552 2.904C15.296 2.904 14.7627 2.904 13.952 2.904C13.184 2.904 12.1173 2.92533 10.752 2.968C10.624 3.992 10.4533 4.90933 10.24 5.72C10.0267 6.488 9.77067 7.32 9.472 8.216C9.17333 9.112 8.93867 10.008 8.768 10.904C8.59733 11.8 8.42667 12.696 8.256 13.592C8.08533 14.488 7.89333 15.3627 7.68 16.216C7.46667 17.0693 7.168 17.9013 6.784 18.712H6.976C6.89067 19.3093 6.80533 19.9493 6.72 20.632C6.63467 21.272 6.42133 21.8267 6.08 22.296C6.16533 22.7227 6.208 22.9787 6.208 23.064C6.208 23.192 6.144 23.4907 6.016 23.96C5.888 24.3867 5.73867 24.8773 5.568 25.432C5.44 25.9867 5.29067 26.52 5.12 27.032C4.992 27.5013 4.90667 27.8427 4.864 28.056C4.736 28.6533 4.608 29.2933 4.48 29.976C4.352 30.616 4.18133 31.1493 3.968 31.576C3.968 31.6613 3.968 31.7467 3.968 31.832C4.01067 31.9173 4.032 31.9813 4.032 32.024C4.032 32.1093 4.05333 32.152 4.096 32.152C4.096 32.4933 4.032 32.8347 3.904 33.176C3.776 33.4747 3.712 33.7733 3.712 34.072V34.264C3.88267 34.0507 3.968 33.8373 3.968 33.624C3.968 33.368 4.096 33.1973 4.352 33.112C4.30933 34.1787 4.16 35.2667 3.904 36.376C3.69067 37.4853 3.43467 38.616 3.136 39.768C2.83733 40.8773 2.53867 41.9867 2.24 43.096C1.94133 44.1627 1.68533 45.208 1.472 46.232L1.728 46.36C2.96533 46.1467 4.16 45.9547 5.312 45.784C6.50667 45.5707 7.68 45.336 8.832 45.08C9.13067 44.6107 9.38667 44.0133 9.6 43.288C9.81333 42.5627 10.0053 41.816 10.176 41.048C10.3467 40.28 10.496 39.5333 10.624 38.808C10.7947 38.04 10.9867 37.4 11.2 36.888L10.88 36.376C11.6053 35.9493 12.48 35.7573 13.504 35.8C14.528 35.8427 15.488 35.8213 16.384 35.736C16.4693 35.8213 16.5973 35.928 16.768 36.056C16.9813 36.1413 17.088 36.2907 17.088 36.504L16.96 36.76C17.216 37.3573 17.4507 38.04 17.664 38.808C17.8773 39.576 18.0907 40.3653 18.304 41.176C18.5173 41.9867 18.752 42.7547 19.008 43.48C19.264 44.2053 19.5627 44.824 19.904 45.336H19.648V45.848C19.7333 45.8053 19.8187 45.784 19.904 45.784C20.032 45.7413 20.1387 45.6773 20.224 45.592C20.3947 45.72 21.2267 45.784 22.72 45.784C23.1467 45.784 23.5947 45.784 24.064 45.784ZM13.824 15.32C14.0373 15.32 14.208 15.6613 14.336 16.344C15.0187 19.2027 15.4667 21.6347 15.68 23.64C15.8933 25.6453 16.192 27.288 16.576 28.568L16.384 28.696C16.256 28.696 16.128 28.7173 16 28.76C15.872 28.76 15.744 28.76 15.616 28.76C15.1467 28.76 14.6133 28.7387 14.016 28.696C13.4187 28.6533 12.8853 28.632 12.416 28.632H11.584C11.4133 28.632 11.328 28.4827 11.328 28.184C11.328 27.9707 11.3493 27.8427 11.392 27.8C11.4773 27.7147 11.52 27.6293 11.52 27.544V27.288C11.52 27.16 11.5413 27.0747 11.584 27.032L11.648 27.096C11.7333 26.7547 11.7973 25.9867 11.84 24.792C11.9253 23.5973 12.2027 22.04 12.672 20.12C12.928 19.0533 13.056 18.2853 13.056 17.816V17.496C13.056 17.2827 13.2053 17.0267 13.504 16.728C13.4613 16.6853 13.44 16.5573 13.44 16.344C13.44 16.1733 13.4613 15.96 13.504 15.704C13.5893 15.448 13.696 15.32 13.824 15.32ZM14.912 20.184C14.7413 19.16 14.464 18.328 14.08 17.688V17.368C14.08 17.1547 14.016 17.0053 13.888 16.92C13.8027 17.1333 13.6747 17.3467 13.504 17.56C13.376 17.7733 13.312 18.0507 13.312 18.392V18.904C13.312 19.16 13.248 19.7147 13.12 20.568C13.0347 21.3787 12.9067 22.2533 12.736 23.192C12.608 24.1307 12.48 25.0267 12.352 25.88C12.224 26.6907 12.1387 27.224 12.096 27.48L11.968 27.352L11.84 27.608L11.968 27.544L12.224 28.248H15.872L16.128 28.056C15.9147 27.672 15.7653 27.0533 15.68 26.2C15.5947 25.304 15.488 24.344 15.36 23.32C15.2747 22.2533 15.1253 21.208 14.912 20.184ZM3.648 27.032C3.43467 28.5253 3.15733 30.0187 2.816 31.512L3.136 31.448C3.47733 29.9973 3.776 28.504 4.032 26.968C4.288 25.3893 4.52267 23.896 4.736 22.488C4.26667 23.9813 3.904 25.496 3.648 27.032ZM0.192 44.12C0.192 44.2053 0.170667 44.2907 0.128 44.376C0.170667 44.2907 0.192 44.2053 0.192 44.12C0.192 44.0347 0.213333 43.9493 0.256 43.864C0.213333 43.9493 0.192 44.0347 0.192 44.12ZM43.4435 11.096C42.2488 11.096 41.1395 11.544 40.1155 12.44L39.3475 13.464C39.1768 16.024 39.0488 18.392 38.9635 20.568C38.8782 22.7013 38.8355 25.048 38.8355 27.608C38.8355 28.7173 38.8782 29.848 38.9635 31C39.0488 32.152 39.2408 33.2187 39.5395 34.2C39.8808 35.1813 40.3502 35.992 40.9475 36.632C41.5875 37.2293 42.4195 37.528 43.4435 37.528C44.7235 37.528 45.6622 37.2507 46.2595 36.696C46.8995 36.1413 47.3262 35.4373 47.5395 34.584C47.7955 33.688 47.9448 32.728 47.9875 31.704C48.0302 30.68 48.1155 29.6987 48.2435 28.76C48.5848 28.8027 48.8195 28.8453 48.9475 28.888C49.0755 28.888 49.2888 28.888 49.5875 28.888C49.9288 28.888 50.4835 28.888 51.2515 28.888C52.0195 28.888 53.2142 28.9093 54.8355 28.952C55.0488 28.9093 55.2195 28.8667 55.3475 28.824C55.5182 28.7813 55.6888 28.76 55.8595 28.76C56.2008 28.76 56.5422 28.888 56.8835 29.144C56.8835 30.2533 56.9475 31.384 57.0755 32.536C57.2035 33.6453 57.2675 34.7547 57.2675 35.864C57.2675 37.6133 56.8408 39.2347 55.9875 40.728C55.1768 42.1787 54.1528 43.4587 52.9155 44.568C51.6782 45.6347 50.3342 46.4667 48.8835 47.064C47.4755 47.704 46.1742 48.024 44.9795 48.024C43.1875 48.024 42.2275 48.0027 42.0995 47.96L39.5395 47.384C39.5395 47.5973 39.4542 47.7467 39.2835 47.832C39.1555 47.9173 39.0062 47.96 38.8355 47.96C36.3608 47.96 34.4835 47.3413 33.2035 46.104C31.9235 44.824 31.0062 43.224 30.4515 41.304C29.8968 39.384 29.5768 37.3147 29.4915 35.096C29.4062 32.8347 29.3422 30.7227 29.2995 28.76L29.2355 28.632C29.0648 29.1867 28.9795 29.9333 28.9795 30.872C28.9795 31.4693 29.0008 32.088 29.0435 32.728C29.1288 33.3253 29.2142 33.9227 29.2995 34.52L28.9155 34.456C28.9155 31.512 29.0008 28.504 29.1715 25.432C29.3848 22.36 29.4915 19.288 29.4915 16.216V13.784C29.4915 13.3573 29.4702 12.952 29.4275 12.568C29.4275 12.184 29.4062 11.7787 29.3635 11.352C29.7902 9.73066 30.3235 8.13066 30.9635 6.552C31.6462 4.93067 32.5635 3.43733 33.7155 2.072C34.7395 1.47467 35.8275 1.13333 36.9795 1.048C38.1315 0.962664 39.3688 0.898665 40.6915 0.855999C42.3128 0.941331 43.7635 0.983997 45.0435 0.983997C46.3235 0.983997 47.6888 1.21866 49.1395 1.688C49.4808 2.02933 49.8648 2.30666 50.2915 2.52C50.7182 2.73333 51.1448 2.968 51.5715 3.224C52.0408 3.43733 52.4675 3.69333 52.8515 3.992C53.2355 4.29066 53.5555 4.67466 53.8115 5.144C55.7742 7.704 57.0328 10.4773 57.5875 13.464C57.5448 14.4453 57.4382 15.4053 57.2675 16.344C57.0968 17.2827 57.0115 18.2427 57.0115 19.224C57.0115 19.736 57.0328 20.0347 57.0755 20.12C56.5635 20.2053 56.0728 20.2693 55.6035 20.312C55.1342 20.3547 54.6648 20.376 54.1955 20.376C53.4702 20.376 52.7448 20.3547 52.0195 20.312C51.3368 20.2267 50.6328 20.184 49.9075 20.184C49.6942 20.184 49.4595 20.2053 49.2035 20.248C48.9902 20.248 48.7768 20.248 48.5635 20.248C48.3502 20.1627 48.1155 20.0987 47.8595 20.056C47.6035 20.0133 47.4542 19.8427 47.4115 19.544C47.3262 18.8613 47.2835 18.0507 47.2835 17.112C47.2835 16.1307 47.1768 15.192 46.9635 14.296C46.7928 13.4 46.4515 12.6533 45.9395 12.056C45.4275 11.416 44.5955 11.096 43.4435 11.096ZM38.0035 31.512C37.9182 30.1893 37.8542 28.9947 37.8115 27.928V25.688C37.8542 25.4747 37.8755 25.2613 37.8755 25.048C37.8755 24.792 37.8755 24.5573 37.8755 24.344V20.248C37.8755 18.328 38.0035 16.5147 38.2595 14.808C38.5155 13.1013 39.2195 11.5227 40.3715 10.072H40.6915C41.2462 10.072 41.6728 9.98667 41.9715 9.816C42.3128 9.60266 42.7822 9.496 43.3795 9.496C44.6595 9.496 45.5982 9.83733 46.1955 10.52C46.8355 11.16 47.3048 11.9707 47.6035 12.952C47.9022 13.9333 48.0728 15 48.1155 16.152C48.2008 17.2613 48.3075 18.264 48.4355 19.16H55.5395L55.9235 18.904C55.9235 18.264 55.9662 17.6667 56.0515 17.112C56.1368 16.5147 56.1795 15.896 56.1795 15.256C56.1795 13.976 56.0088 12.8453 55.6675 11.864C55.3688 10.8827 54.9422 9.98667 54.3875 9.176C53.8328 8.32267 53.1715 7.512 52.4035 6.744C51.6782 5.93333 50.9102 5.10133 50.0995 4.248C48.8622 3.65066 47.5395 3.18133 46.1315 2.84C44.7235 2.456 43.2942 2.264 41.8435 2.264C40.6915 2.264 39.5395 2.392 38.3875 2.648C37.2782 2.904 36.2328 3.288 35.2515 3.8C35.0382 3.84267 34.8888 3.97066 34.8035 4.184C34.7182 4.35467 34.5902 4.44 34.4195 4.44L34.2915 4.312L33.2675 5.016C32.4995 5.656 31.9875 6.38133 31.7315 7.192C31.4755 7.96 31.3262 8.792 31.2835 9.688C31.2408 10.584 31.2195 11.5013 31.2195 12.44C31.2622 13.336 31.1982 14.1893 31.0275 15C30.9422 15 30.8995 14.936 30.8995 14.808C30.9422 14.68 30.9208 14.552 30.8355 14.424L30.5795 18.2C30.4515 19.8213 30.3875 21.4213 30.3875 23C30.3875 23.4693 30.3875 23.9387 30.3875 24.408C30.4302 24.8347 30.4515 25.2827 30.4515 25.752L30.7715 25.944C30.6435 26.584 30.5795 26.9893 30.5795 27.16C30.5795 27.288 30.6008 27.352 30.6435 27.352L30.7715 27.288C30.7288 27.5013 30.6862 27.7147 30.6435 27.928C30.6435 28.0987 30.6435 28.2907 30.6435 28.504V32.28C30.6435 32.4507 30.6435 32.6213 30.6435 32.792C30.6435 32.9627 30.6222 33.1333 30.5795 33.304L30.8355 34.328C30.6648 34.7973 30.5795 35.3947 30.5795 36.12C30.5795 37.3573 30.8568 38.616 31.4115 39.896C32.0088 41.1333 32.8835 42.264 34.0355 43.288C35.1875 44.312 36.5955 45.144 38.2595 45.784C39.9235 46.424 41.8435 46.744 44.0195 46.744C45.0862 46.744 46.1955 46.5947 47.3475 46.296C48.4995 45.9973 49.5875 45.5493 50.6115 44.952C51.6782 44.3547 52.6168 43.608 53.4275 42.712C54.2382 41.816 54.8355 40.7707 55.2195 39.576L54.9635 39.512C55.3902 38.5733 55.6462 37.6773 55.7315 36.824C55.8168 35.9707 55.8595 35.0747 55.8595 34.136C55.8595 32.7707 55.6462 31.8533 55.2195 31.384C54.8355 30.9147 54.2595 30.68 53.4915 30.68C52.9368 30.68 52.3608 30.744 51.7635 30.872C51.1662 30.9573 50.5902 31 50.0355 31C49.6088 31 49.3528 30.9787 49.2675 30.936C49.2248 31.7893 49.0755 32.6 48.8195 33.368C48.6062 34.136 48.4995 34.9467 48.4995 35.8C48.1582 36.4827 47.6462 37.0373 46.9635 37.464C46.2808 37.8907 45.7262 38.4453 45.2995 39.128C45.0008 39.2987 44.5315 39.384 43.8915 39.384C42.4835 39.384 41.3742 39 40.5635 38.232C39.7528 37.4213 39.1555 36.44 38.7715 35.288C38.3875 34.0933 38.1315 32.8347 38.0035 31.512ZM82.4375 38.104C84.2295 38.104 86.0215 38.04 87.8135 37.912L88.0695 38.232L88.1975 40.408C88.1975 41.3893 88.1548 42.3707 88.0695 43.352C87.9842 44.2907 87.9415 45.272 87.9415 46.296L87.5575 46.744L70.3415 46.808C70.2562 46.7653 70.0642 46.744 69.7655 46.744H69.1895C68.6348 46.744 68.0802 46.7867 67.5255 46.872C67.0135 46.9573 66.3735 47 65.6055 47C63.9842 47 62.8748 46.936 62.2775 46.808C61.7228 46.6373 61.4455 46.4667 61.4455 46.296C61.4882 46.2533 61.5095 46.2107 61.5095 46.168C61.5095 46.04 61.5308 45.9333 61.5735 45.848C61.5308 45.6347 61.4882 45.4427 61.4455 45.272C61.4455 45.1013 61.4455 44.9093 61.4455 44.696C61.4455 44.312 61.4668 43.928 61.5095 43.544C61.5522 43.16 61.5735 42.776 61.5735 42.392V41.88C61.5735 41.624 61.5522 41.4533 61.5095 41.368C61.5522 40.6853 61.5735 40.024 61.5735 39.384C61.6162 38.744 61.6375 38.104 61.6375 37.464C61.6375 34.904 61.5522 32.4293 61.3815 30.04C61.2108 27.608 61.1255 25.176 61.1255 22.744C61.1255 20.824 61.1682 18.84 61.2535 16.792C61.3388 14.7013 61.3815 12.568 61.3815 10.392C61.3815 9.15467 61.4028 7.91733 61.4455 6.68C61.4882 5.44266 61.5735 4.248 61.7015 3.096C61.9575 2.968 62.1068 2.88266 62.1495 2.84C62.2348 2.79733 62.5335 2.776 63.0455 2.776C63.5575 2.776 64.4535 2.776 65.7335 2.776C67.0135 2.73333 68.9762 2.66933 71.6215 2.584C71.7922 2.712 72.1122 2.776 72.5815 2.776H74.5015C75.6962 2.776 76.6562 2.79733 77.3815 2.84C78.1495 2.84 78.9602 2.84 79.8135 2.84C82.1175 2.84 84.3362 2.776 86.4695 2.648L86.6615 2.52C86.3202 2.30666 85.9148 2.2 85.4455 2.2C85.2322 2.2 84.9975 2.22133 84.7415 2.264C84.5282 2.264 84.3148 2.264 84.1015 2.264H83.7815V2.136C84.5068 2.136 85.2108 2.11466 85.8935 2.072C86.5762 2.02933 87.2802 1.96533 88.0055 1.88C88.1762 1.92266 88.2615 2.02933 88.2615 2.2C88.2615 2.328 88.1335 2.52 87.8775 2.776C87.9628 3.16 88.0055 3.56533 88.0055 3.992C88.0482 4.376 88.0695 4.78133 88.0695 5.208C88.0695 5.80533 88.0482 6.40266 88.0055 7C88.0055 7.59733 88.0055 8.19467 88.0055 8.792V9.56C88.0055 9.90133 88.0268 10.136 88.0695 10.264C88.0268 10.4773 87.9842 10.712 87.9415 10.968C87.9415 11.224 87.9415 11.4587 87.9415 11.672V11.992C87.3868 12.0773 86.4482 12.1627 85.1255 12.248C83.8455 12.3333 82.1175 12.4187 79.9415 12.504C79.7282 12.504 79.4935 12.504 79.2375 12.504C78.9815 12.4613 78.7255 12.4187 78.4695 12.376L71.1095 12.568L70.9815 12.824C70.9815 13.0373 70.9815 13.2507 70.9815 13.464C71.0242 13.6347 71.0455 13.8267 71.0455 14.04C71.0455 14.7653 71.0028 15.4693 70.9175 16.152C70.8748 16.8347 70.8535 17.5387 70.8535 18.264C70.8535 18.5627 70.8535 18.8613 70.8535 19.16C70.8962 19.416 70.9388 19.6933 70.9815 19.992L71.2375 20.248L78.9815 20.312C79.1095 20.568 79.1735 21.3573 79.1735 22.68C79.1735 23.6613 79.1522 24.792 79.1095 26.072C79.1095 27.3093 79.1095 28.504 79.1095 29.656C78.5122 29.528 77.7655 29.464 76.8695 29.464H76.9975C76.8695 29.464 76.5068 29.464 75.9095 29.464C75.3548 29.464 74.7362 29.4853 74.0535 29.528C73.4135 29.528 72.8375 29.5493 72.3255 29.592C71.8135 29.592 71.5575 29.6133 71.5575 29.656C71.5575 29.7413 71.4935 29.848 71.3655 29.976L71.1735 30.296V34.712C71.1735 35.9067 71.2588 36.824 71.4295 37.464C71.3868 37.5493 71.3442 37.6133 71.3015 37.656C71.2588 37.656 71.2375 37.6987 71.2375 37.784L71.4935 37.912C73.4135 37.912 75.2695 37.9547 77.0615 38.04C78.8535 38.0827 80.6455 38.104 82.4375 38.104ZM74.2455 45.72C76.6348 45.6773 80.2188 45.6133 84.9975 45.528C85.7655 45.4427 86.3842 45.3787 86.8535 45.336C87.0242 44.696 87.1095 43.8427 87.1095 42.776C87.1095 42.0933 87.0668 41.4107 86.9815 40.728C86.9388 40.0453 86.9175 39.4053 86.9175 38.808C86.7895 38.936 86.6402 39 86.4695 39C86.3842 39 86.2988 39 86.2135 39C86.1282 38.9573 86.0428 38.936 85.9575 38.936C85.7442 38.936 85.5735 39.0213 85.4455 39.192C83.6535 39.1493 81.9255 39.128 80.2615 39.128C78.6402 39.0853 76.9335 39.064 75.1415 39.064H71.1735C70.7468 39.064 70.4055 38.9147 70.1495 38.616L70.2135 38.552L69.8295 38.232C69.7868 38.104 69.7655 37.784 69.7655 37.272V33.624C69.7655 33.1547 69.7015 32.7493 69.5735 32.408C69.4882 32.024 69.4455 31.5973 69.4455 31.128C69.4455 30.0187 69.4668 29.4213 69.5095 29.336C69.5948 29.208 69.6375 29.1013 69.6375 29.016C69.6375 28.888 69.9788 28.7813 70.6615 28.696C71.3868 28.6107 72.1975 28.5467 73.0935 28.504C74.0322 28.4187 74.9282 28.3547 75.7815 28.312C76.6348 28.2267 77.2108 28.1627 77.5095 28.12C77.6802 28.12 77.7655 28.184 77.7655 28.312H78.1495C78.1068 28.2267 78.0855 28.056 78.0855 27.8C78.1282 26.9467 78.1495 26.264 78.1495 25.752C78.1922 25.24 78.2135 24.8987 78.2135 24.728C78.2135 24.5573 78.1922 24.3013 78.1495 23.96C78.1495 23.6187 78.1282 23.2773 78.0855 22.936C78.0428 22.552 77.9575 22.232 77.8295 21.976C77.7442 21.72 77.6162 21.592 77.4455 21.592C76.7202 21.72 75.9948 21.784 75.2695 21.784C74.6295 21.784 73.9895 21.7413 73.3495 21.656C72.7095 21.5707 72.0482 21.528 71.3655 21.528C70.8962 21.528 70.6402 21.656 70.5975 21.912C70.2988 21.912 70.1068 21.8267 70.0215 21.656C69.9362 21.4853 69.8722 21.2933 69.8295 21.08L69.7655 20.376C69.7655 20.12 69.6802 19.928 69.5095 19.8L69.6375 17.688C69.6375 17.3467 69.6162 16.7707 69.5735 15.96C69.5735 15.1493 69.5522 14.1253 69.5095 12.888C69.5095 12.504 69.5308 12.248 69.5735 12.12L69.7655 11.736H70.1495C70.4482 11.736 70.7682 11.7147 71.1095 11.672C71.4935 11.6293 71.8988 11.5653 72.3255 11.48H73.2215C74.0748 11.48 75.4828 11.4587 77.4455 11.416C79.4082 11.3307 81.9895 11.2453 85.1895 11.16C85.4882 11.1173 85.7655 11.096 86.0215 11.096C86.3202 11.0533 86.6402 10.9893 86.9815 10.904L86.8535 3.928L86.7255 3.736C86.3415 3.864 85.9148 3.928 85.4455 3.928C84.9762 3.928 84.4855 3.90666 83.9735 3.864C83.5042 3.77866 82.8428 3.736 81.9895 3.736C81.3922 3.736 80.9868 3.75733 80.7735 3.8C80.6028 3.8 80.2402 3.8 79.6855 3.8C79.0455 3.8 78.2775 3.77866 77.3815 3.736C76.4855 3.69333 75.6322 3.672 74.8215 3.672C72.7735 3.672 70.7255 3.77866 68.6775 3.992C66.6722 4.20533 64.6242 4.48266 62.5335 4.824L62.3415 5.272L62.4695 9.624C62.4268 9.70933 62.4055 9.90133 62.4055 10.2C62.5335 12.12 62.5975 13.3573 62.5975 13.912V16.92V17.496C62.5975 17.7093 62.6615 17.9013 62.7895 18.072C62.9602 18.2427 63.0455 18.5413 63.0455 18.968C63.0455 19.1387 63.0455 19.3093 63.0455 19.48C63.0455 19.6507 63.0242 19.8427 62.9815 20.056C62.9815 20.312 63.0242 20.6747 63.1095 21.144C63.1948 21.5707 63.2375 22.0827 63.2375 22.68C63.2375 23.576 63.0455 24.792 62.6615 26.328V29.336C62.7042 30.104 62.7255 30.6587 62.7255 31C62.7682 31.2987 62.7895 31.4907 62.7895 31.576C62.7895 31.6613 62.8108 31.704 62.8535 31.704C62.8962 31.6613 62.9602 31.6613 63.0455 31.704C63.1308 31.6187 63.1735 31.5547 63.1735 31.512C63.1735 31.4267 63.2162 31.384 63.3015 31.384H63.3655C63.3655 31.2987 63.3442 31.2347 63.3015 31.192C63.3015 31.1067 63.3015 31.0213 63.3015 30.936C63.3015 30.808 63.3655 30.7013 63.4935 30.616C63.6215 31 63.6855 31.448 63.6855 31.96C63.6855 32.088 63.6642 32.28 63.6215 32.536C63.5788 32.7493 63.5148 32.856 63.4295 32.856C63.3442 32.856 63.3015 32.8347 63.3015 32.792C63.3015 32.7493 63.2588 32.728 63.1735 32.728L63.1095 32.856C63.1522 32.856 63.1735 32.8987 63.1735 32.984C63.1735 33.1547 63.1095 33.3253 62.9815 33.496C62.8962 33.624 62.8535 33.7307 62.8535 33.816L63.0455 33.752C63.1308 33.9653 63.1522 34.2213 63.1095 34.52C63.1095 34.776 63.1308 35.032 63.1735 35.288C63.1308 35.672 62.9388 36.3547 62.5975 37.336V37.592C62.5548 37.592 62.5335 37.6133 62.5335 37.656C62.5335 37.7413 62.5975 37.8907 62.7255 38.104C62.8535 38.3173 63.0028 38.5733 63.1735 38.872C63.3442 39.128 63.4935 39.4053 63.6215 39.704C63.7495 40.0027 63.8135 40.2373 63.8135 40.408C63.8135 40.7493 63.7282 40.92 63.5575 40.92C63.5148 40.92 63.4722 40.8987 63.4295 40.856C63.4722 40.9413 63.4935 41.1333 63.4935 41.432V42.008C63.4082 42.8613 63.3442 43.608 63.3015 44.248C63.2588 44.8453 63.2375 45.3147 63.2375 45.656C63.5362 45.784 63.8348 45.848 64.1335 45.848C64.4748 45.848 64.8162 45.8267 65.1575 45.784C65.4988 45.6987 65.8402 45.656 66.1815 45.656H69.9575C70.0428 45.656 70.1495 45.6773 70.2775 45.72C70.4055 45.7627 70.5122 45.784 70.5975 45.784C70.6402 45.784 71.8562 45.7627 74.2455 45.72ZM143.557 46.68C143.301 46.68 142.938 46.7013 142.469 46.744C142.512 46.7013 142.682 46.68 142.981 46.68L142.853 46.616C142.512 46.5307 142.341 46.488 142.341 46.488C142.128 46.488 141.978 46.5947 141.893 46.808C141.808 46.9787 141.658 47.064 141.445 47.064C141.232 47.064 141.018 46.9787 140.805 46.808C140.592 46.6373 140.378 46.552 140.165 46.552C139.994 46.552 139.824 46.616 139.653 46.744C139.482 46.7013 139.269 46.6587 139.013 46.616C138.8 46.5733 138.522 46.5307 138.181 46.488V46.744C137.882 46.5733 137.52 46.488 137.093 46.488C136.88 46.488 136.666 46.5093 136.453 46.552C136.282 46.552 136.09 46.552 135.877 46.552H135.429V46.488H134.149C133.722 46.488 133.274 46.5093 132.805 46.552C132.336 46.552 131.952 46.5947 131.653 46.68H131.845C131.93 46.68 131.973 46.7013 131.973 46.744L131.845 46.872H129.285L129.157 46.936V46.872C128.901 46.7867 128.709 46.744 128.581 46.744C128.496 46.744 128.346 46.7013 128.133 46.616C127.962 46.7013 127.834 46.744 127.749 46.744C127.621 46.744 127.557 46.7013 127.557 46.616C127.557 46.5733 127.578 46.5307 127.621 46.488C127.408 46.5307 127.194 46.552 126.981 46.552C126.768 46.552 126.49 46.552 126.149 46.552C125.68 46.552 125.082 46.552 124.357 46.552C123.674 46.5093 123.077 46.488 122.565 46.488C121.669 46.488 121.221 46.552 121.221 46.68C121.093 46.68 120.816 46.5947 120.389 46.424C119.962 46.2107 119.685 45.976 119.557 45.72V45.656L119.621 45.72C119.877 44.7813 120.005 43.7787 120.005 42.712H120.069H120.005C120.048 42.6693 120.069 42.6267 120.069 42.584C119.984 42.2427 119.941 42.072 119.941 42.072C119.941 42.072 119.984 41.944 120.069 41.688V42.072L120.261 41.496L120.069 41.688C120.154 40.792 120.197 40.1733 120.197 39.832C120.24 39.448 120.261 39.064 120.261 38.68C120.261 38.2533 120.282 37.656 120.325 36.888C120.368 36.12 120.453 34.904 120.581 33.24C120.538 28.8453 120.496 25.1547 120.453 22.168C120.453 19.1813 120.432 16.728 120.389 14.808C120.346 12.888 120.304 11.416 120.261 10.392C120.261 9.368 120.261 8.6 120.261 8.088C120.261 7.53333 120.24 7.14933 120.197 6.936C120.197 6.72266 120.176 6.488 120.133 6.232C120.09 5.976 120.048 5.592 120.005 5.08C120.005 4.568 119.984 3.75733 119.941 2.648C119.856 2.47733 119.706 2.392 119.493 2.392C119.322 2.34933 119.237 2.28533 119.237 2.2C119.237 2.02933 119.493 1.90133 120.005 1.816C120.517 1.73067 120.965 1.688 121.349 1.688C121.477 1.688 121.669 1.73067 121.925 1.816C122.693 1.77333 123.418 1.73067 124.101 1.688C124.826 1.60266 125.53 1.56 126.213 1.56C126.853 1.56 127.472 1.60266 128.069 1.688C128.709 1.73067 129.37 1.85867 130.053 2.072C130.01 2.84 129.968 3.608 129.925 4.376C129.925 5.144 129.925 5.912 129.925 6.68V16.024C129.925 17.4747 129.968 18.9467 130.053 20.44C130.138 21.8907 130.181 23.3413 130.181 24.792C130.181 26.4987 130.138 28.2267 130.053 29.976C129.968 31.6827 129.925 33.368 129.925 35.032C130.181 35.1173 130.309 35.2453 130.309 35.416C130.309 35.5013 130.288 35.608 130.245 35.736C130.202 35.8213 130.181 35.9067 130.181 35.992C130.181 36.12 130.202 36.2053 130.245 36.248C130.117 36.3333 130.053 36.4187 130.053 36.504C130.096 36.5893 130.096 36.6747 130.053 36.76C130.138 36.8453 130.224 36.888 130.309 36.888C130.394 36.8453 130.501 36.8453 130.629 36.888C130.757 36.5467 130.949 36.376 131.205 36.376C131.461 36.376 131.589 36.3973 131.589 36.44C131.589 36.44 131.61 36.4613 131.653 36.504C131.738 36.5467 131.93 36.5893 132.229 36.632C132.528 36.632 133.125 36.632 134.021 36.632H135.301C136.282 36.632 137.2 36.6747 138.053 36.76C138.906 36.8027 139.76 36.888 140.613 37.016C140.784 36.8453 141.04 36.76 141.381 36.76C141.637 36.9733 141.957 37.1227 142.341 37.208C142.725 37.2507 143.109 37.272 143.493 37.272H144.709C144.794 37.272 144.837 37.2507 144.837 37.208C144.837 37.1653 144.858 37.1227 144.901 37.08L143.237 36.504C143.578 36.4187 143.834 36.376 144.005 36.376C144.56 36.376 145.136 36.4613 145.733 36.632C146.33 36.8027 146.629 37.2507 146.629 37.976C146.629 38.4027 146.565 38.808 146.437 39.192C146.352 39.576 146.309 40.0027 146.309 40.472C146.309 40.5573 146.309 40.6427 146.309 40.728C146.352 40.7707 146.373 40.8347 146.373 40.92C146.33 41.1333 146.309 41.3467 146.309 41.56C146.309 41.7733 146.309 41.9867 146.309 42.2V43.416C146.309 44.4827 146.373 45.464 146.501 46.36C146.288 46.744 145.989 46.936 145.605 46.936C145.392 46.936 145.136 46.8933 144.837 46.808C144.581 46.7227 144.304 46.68 144.005 46.68C143.962 46.68 143.813 46.68 143.557 46.68ZM144.389 45.976C144.773 45.976 144.986 45.9973 145.029 46.04C145.2 45.656 145.306 45.2293 145.349 44.76C145.434 44.2907 145.498 43.8213 145.541 43.352C145.242 42.9253 145.093 42.3707 145.093 41.688C145.093 41.304 145.114 40.92 145.157 40.536C145.242 40.152 145.285 39.768 145.285 39.384C145.285 38.872 145.264 38.5733 145.221 38.488C142.405 38.4027 139.696 38.36 137.093 38.36C134.49 38.3173 131.845 38.04 129.157 37.528C129.2 37.6133 129.221 37.6987 129.221 37.784C129.221 37.8693 129.264 37.9333 129.349 37.976C129.349 38.36 129.264 38.6373 129.093 38.808C128.666 38.7653 128.453 38.5093 128.453 38.04C128.453 37.8693 128.474 37.6987 128.517 37.528C128.56 37.3573 128.581 37.1867 128.581 37.016C128.581 36.7173 128.474 36.4613 128.261 36.248C128.09 35.7787 127.984 35.3093 127.941 34.84C127.898 34.3707 127.877 33.9013 127.877 33.432C127.877 32.7493 127.877 31.9387 127.877 31C127.877 30.0613 127.898 29.1653 127.941 28.312C127.984 27.288 128.026 26.264 128.069 25.24C128.112 25.24 128.176 25.368 128.261 25.624L128.389 25.176C128.474 24.3653 128.56 23.512 128.645 22.616C128.73 21.6773 128.773 20.7813 128.773 19.928C128.688 19.7147 128.645 19.3947 128.645 18.968V18.2V17.048V16.28C128.645 15.8533 128.602 15.5333 128.517 15.32C128.688 15.192 128.773 15.064 128.773 14.936C128.773 14.808 128.73 14.7013 128.645 14.616C128.56 14.488 128.517 14.3173 128.517 14.104C128.517 13.9333 128.538 13.72 128.581 13.464C128.666 13.1653 128.709 12.4613 128.709 11.352V4.888V4.312C128.709 4.01333 128.752 3.82133 128.837 3.736L128.965 3.864L129.029 3.736C129.029 3.608 128.901 3.52267 128.645 3.48C128.432 3.39466 128.154 3.352 127.813 3.352C127.472 3.30933 127.109 3.288 126.725 3.288C126.384 3.24533 126.106 3.224 125.893 3.224C125.125 3.224 124.357 3.24533 123.589 3.288C122.864 3.33066 122.138 3.39466 121.413 3.48C121.37 4.58933 121.328 5.74133 121.285 6.936C121.242 8.088 121.221 9.24 121.221 10.392C121.221 11.3733 121.242 12.376 121.285 13.4C121.328 14.3813 121.349 15.3627 121.349 16.344C121.349 19.416 121.285 22.4453 121.157 25.432C121.029 28.4187 120.965 31.448 120.965 34.52C120.965 35.928 120.986 37.3573 121.029 38.808C121.114 40.216 121.2 41.6453 121.285 43.096C121.072 43.224 120.965 43.3733 120.965 43.544C120.965 43.6293 120.986 43.7573 121.029 43.928C121.072 44.056 121.093 44.2053 121.093 44.376V44.568C121.178 44.824 121.2 45.08 121.157 45.336C121.114 45.592 121.285 45.72 121.669 45.72C122.138 45.592 122.586 45.5493 123.013 45.592C123.44 45.592 123.845 45.4853 124.229 45.272C126.106 45.4 128.005 45.4853 129.925 45.528C131.845 45.5707 133.573 45.6133 135.109 45.656C136.645 45.656 137.904 45.656 138.885 45.656C139.866 45.656 140.357 45.6773 140.357 45.72C140.656 45.592 141.04 45.528 141.509 45.528C141.893 45.528 142.234 45.6133 142.533 45.784C142.832 45.912 143.173 45.976 143.557 45.976H144.389ZM172.609 41.368C172.822 42.648 173.142 43.7787 173.569 44.76C173.654 45.144 173.761 45.5067 173.889 45.848C174.017 46.1893 174.145 46.552 174.273 46.936C174.188 47.192 174.102 47.32 174.017 47.32C173.846 47.32 173.505 47.2987 172.993 47.256C172.481 47.2133 171.436 47.1493 169.857 47.064C168.918 47.0213 168.108 47 167.425 47C166.742 47 166.188 46.936 165.761 46.808C165.505 46.1253 165.228 45.3573 164.929 44.504C164.673 43.6507 164.396 42.7973 164.097 41.944C163.841 41.048 163.564 40.1947 163.265 39.384C163.009 38.5307 162.753 37.784 162.497 37.144L162.241 36.888C161.729 36.9307 161.196 36.952 160.641 36.952C160.129 36.9093 159.638 36.9947 159.169 37.208C159.596 37.336 160.001 37.4213 160.385 37.464C160.812 37.464 161.238 37.5067 161.665 37.592C161.494 37.6347 161.324 37.656 161.153 37.656C161.068 37.656 161.025 37.6773 161.025 37.72C160.769 37.72 160.492 37.6987 160.193 37.656C159.937 37.5707 159.681 37.528 159.425 37.528C158.828 37.528 158.444 37.72 158.273 38.104C158.145 38.7013 157.996 39.384 157.825 40.152C157.654 40.92 157.462 41.7093 157.249 42.52C157.078 43.288 156.908 44.056 156.737 44.824C156.566 45.592 156.417 46.2533 156.289 46.808C156.076 47.0213 155.798 47.128 155.457 47.128C155.244 47.128 155.009 47.0853 154.753 47C154.497 46.9573 154.262 46.936 154.049 46.936C153.793 46.936 153.644 46.9573 153.601 47L153.473 46.872C152.406 46.9147 151.318 46.936 150.209 46.936C149.1 46.8933 148.033 46.936 147.009 47.064C146.966 46.9787 146.902 46.936 146.817 46.936C146.732 46.936 146.689 46.8933 146.689 46.808C146.689 46.7227 146.689 46.7013 146.689 46.744C146.732 46.7867 146.796 46.68 146.881 46.424L147.137 46.04C147.009 45.912 146.945 45.8053 146.945 45.72C146.945 45.592 147.009 45.464 147.137 45.336C147.265 45.208 147.35 45.0587 147.393 44.888C147.734 42.84 148.118 40.6427 148.545 38.296C149.014 35.9493 149.398 33.752 149.697 31.704C149.569 31.704 149.398 32.1733 149.185 33.112C148.972 34.008 148.737 35.096 148.481 36.376C148.225 37.656 147.948 39 147.649 40.408C147.393 41.7733 147.137 42.9253 146.881 43.864C147.606 40.1093 148.31 36.2053 148.993 32.152C149.676 28.056 150.486 24.1307 151.425 20.376C151.425 20.6747 151.404 20.888 151.361 21.016V21.784C151.958 19.352 152.534 16.9627 153.089 14.616C153.686 12.2693 154.22 9.88 154.689 7.448C154.604 7.53333 154.54 7.66133 154.497 7.832C154.454 7.96 154.39 8.088 154.305 8.216C154.348 7.74666 154.476 7.21333 154.689 6.616C154.902 5.976 155.158 5.35733 155.457 4.76C155.756 4.16267 156.076 3.608 156.417 3.096C156.801 2.584 157.185 2.2 157.569 1.944H158.657C160.406 1.944 161.644 1.90133 162.369 1.816C163.137 1.73067 163.777 1.688 164.289 1.688C164.801 3.736 165.292 5.74133 165.761 7.704C166.23 9.624 166.636 11.608 166.977 13.656C166.977 14.0827 167.105 14.4453 167.361 14.744C167.617 15 167.745 15.2987 167.745 15.64C167.702 15.6827 167.681 15.7253 167.681 15.768C167.681 15.8107 167.66 15.8533 167.617 15.896C167.617 15.9387 167.617 16.0027 167.617 16.088C168.001 17.4107 168.3 18.776 168.513 20.184C168.726 21.5493 169.068 22.872 169.537 24.152C169.75 25.432 170.006 26.7547 170.305 28.12C170.646 29.4427 170.881 30.744 171.009 32.024C171.35 32.7067 171.521 33.4747 171.521 34.328C171.521 35.1387 171.649 35.9067 171.905 36.632C172.118 36.7173 172.225 36.8453 172.225 37.016C172.225 37.1867 172.246 37.3573 172.289 37.528C172.118 37.528 172.033 37.6133 172.033 37.784C172.246 38.8507 172.438 40.0453 172.609 41.368ZM170.689 45.784C171.201 45.784 171.756 45.7627 172.353 45.72H172.865L172.545 43.8C172.332 42.4773 172.033 41.176 171.649 39.896C171.308 38.616 170.945 37.4213 170.561 36.312C170.22 35.2027 169.921 34.2213 169.665 33.368C169.409 32.5147 169.281 31.8533 169.281 31.384V31.192C169.281 30.8933 169.238 30.552 169.153 30.168C169.068 29.784 168.94 29.272 168.769 28.632C168.598 27.9493 168.364 27.1173 168.065 26.136C167.766 25.112 167.425 23.7893 167.041 22.168C166.998 22.0827 166.977 22.0187 166.977 21.976C166.977 21.8907 166.956 21.8053 166.913 21.72C166.998 21.72 167.574 23.2773 168.641 26.392C168.726 26.52 168.812 26.6693 168.897 26.84C169.025 26.968 169.089 27.1173 169.089 27.288V27.48H168.961C169.046 27.6933 169.089 27.8853 169.089 28.056C169.132 28.2267 169.196 28.3973 169.281 28.568C169.324 28.568 169.388 28.5253 169.473 28.44C169.388 28.3547 169.345 28.2907 169.345 28.248C169.345 28.1627 169.388 28.0987 169.473 28.056C169.558 28.0133 169.601 27.9493 169.601 27.864C169.26 26.6267 168.982 25.3253 168.769 23.96C168.556 22.552 168.257 21.272 167.873 20.12V19.736C167.873 18.7547 167.638 17.7947 167.169 16.856C166.742 15.8747 166.486 14.936 166.401 14.04V14.296C166.401 14.3387 166.444 14.5307 166.529 14.872C166.401 15.128 166.337 15.3413 166.337 15.512C166.337 15.8533 166.401 16.1733 166.529 16.472C166.657 16.7707 166.721 17.0693 166.721 17.368C166.721 17.496 166.678 17.56 166.593 17.56L166.529 17.368C166.529 17.2827 166.508 17.24 166.465 17.24L166.337 17.688C166.252 16.3227 165.974 14.6587 165.505 12.696C165.036 10.6907 164.588 8.536 164.161 6.232L164.225 6.296L163.905 3.928C163.905 3.45867 163.713 3.224 163.329 3.224C163.201 3.224 163.052 3.24533 162.881 3.288C162.753 3.288 162.604 3.288 162.433 3.288C162.22 3.288 162.07 3.24533 161.985 3.16C162.113 3.032 162.177 2.94667 162.177 2.904C161.921 2.904 161.388 2.904 160.577 2.904C159.809 2.904 158.742 2.92533 157.377 2.968C157.249 3.992 157.078 4.90933 156.865 5.72C156.652 6.488 156.396 7.32 156.097 8.216C155.798 9.112 155.564 10.008 155.393 10.904C155.222 11.8 155.052 12.696 154.881 13.592C154.71 14.488 154.518 15.3627 154.305 16.216C154.092 17.0693 153.793 17.9013 153.409 18.712H153.601C153.516 19.3093 153.43 19.9493 153.345 20.632C153.26 21.272 153.046 21.8267 152.705 22.296C152.79 22.7227 152.833 22.9787 152.833 23.064C152.833 23.192 152.769 23.4907 152.641 23.96C152.513 24.3867 152.364 24.8773 152.193 25.432C152.065 25.9867 151.916 26.52 151.745 27.032C151.617 27.5013 151.532 27.8427 151.489 28.056C151.361 28.6533 151.233 29.2933 151.105 29.976C150.977 30.616 150.806 31.1493 150.593 31.576C150.593 31.6613 150.593 31.7467 150.593 31.832C150.636 31.9173 150.657 31.9813 150.657 32.024C150.657 32.1093 150.678 32.152 150.721 32.152C150.721 32.4933 150.657 32.8347 150.529 33.176C150.401 33.4747 150.337 33.7733 150.337 34.072V34.264C150.508 34.0507 150.593 33.8373 150.593 33.624C150.593 33.368 150.721 33.1973 150.977 33.112C150.934 34.1787 150.785 35.2667 150.529 36.376C150.316 37.4853 150.06 38.616 149.761 39.768C149.462 40.8773 149.164 41.9867 148.865 43.096C148.566 44.1627 148.31 45.208 148.097 46.232L148.353 46.36C149.59 46.1467 150.785 45.9547 151.937 45.784C153.132 45.5707 154.305 45.336 155.457 45.08C155.756 44.6107 156.012 44.0133 156.225 43.288C156.438 42.5627 156.63 41.816 156.801 41.048C156.972 40.28 157.121 39.5333 157.249 38.808C157.42 38.04 157.612 37.4 157.825 36.888L157.505 36.376C158.23 35.9493 159.105 35.7573 160.129 35.8C161.153 35.8427 162.113 35.8213 163.009 35.736C163.094 35.8213 163.222 35.928 163.393 36.056C163.606 36.1413 163.713 36.2907 163.713 36.504L163.585 36.76C163.841 37.3573 164.076 38.04 164.289 38.808C164.502 39.576 164.716 40.3653 164.929 41.176C165.142 41.9867 165.377 42.7547 165.633 43.48C165.889 44.2053 166.188 44.824 166.529 45.336H166.273V45.848C166.358 45.8053 166.444 45.784 166.529 45.784C166.657 45.7413 166.764 45.6773 166.849 45.592C167.02 45.72 167.852 45.784 169.345 45.784C169.772 45.784 170.22 45.784 170.689 45.784ZM160.449 15.32C160.662 15.32 160.833 15.6613 160.961 16.344C161.644 19.2027 162.092 21.6347 162.305 23.64C162.518 25.6453 162.817 27.288 163.201 28.568L163.009 28.696C162.881 28.696 162.753 28.7173 162.625 28.76C162.497 28.76 162.369 28.76 162.241 28.76C161.772 28.76 161.238 28.7387 160.641 28.696C160.044 28.6533 159.51 28.632 159.041 28.632H158.209C158.038 28.632 157.953 28.4827 157.953 28.184C157.953 27.9707 157.974 27.8427 158.017 27.8C158.102 27.7147 158.145 27.6293 158.145 27.544V27.288C158.145 27.16 158.166 27.0747 158.209 27.032L158.273 27.096C158.358 26.7547 158.422 25.9867 158.465 24.792C158.55 23.5973 158.828 22.04 159.297 20.12C159.553 19.0533 159.681 18.2853 159.681 17.816V17.496C159.681 17.2827 159.83 17.0267 160.129 16.728C160.086 16.6853 160.065 16.5573 160.065 16.344C160.065 16.1733 160.086 15.96 160.129 15.704C160.214 15.448 160.321 15.32 160.449 15.32ZM161.537 20.184C161.366 19.16 161.089 18.328 160.705 17.688V17.368C160.705 17.1547 160.641 17.0053 160.513 16.92C160.428 17.1333 160.3 17.3467 160.129 17.56C160.001 17.7733 159.937 18.0507 159.937 18.392V18.904C159.937 19.16 159.873 19.7147 159.745 20.568C159.66 21.3787 159.532 22.2533 159.361 23.192C159.233 24.1307 159.105 25.0267 158.977 25.88C158.849 26.6907 158.764 27.224 158.721 27.48L158.593 27.352L158.465 27.608L158.593 27.544L158.849 28.248H162.497L162.753 28.056C162.54 27.672 162.39 27.0533 162.305 26.2C162.22 25.304 162.113 24.344 161.985 23.32C161.9 22.2533 161.75 21.208 161.537 20.184ZM150.273 27.032C150.06 28.5253 149.782 30.0187 149.441 31.512L149.761 31.448C150.102 29.9973 150.401 28.504 150.657 26.968C150.913 25.3893 151.148 23.896 151.361 22.488C150.892 23.9813 150.529 25.496 150.273 27.032ZM146.817 44.12C146.817 44.2053 146.796 44.2907 146.753 44.376C146.796 44.2907 146.817 44.2053 146.817 44.12C146.817 44.0347 146.838 43.9493 146.881 43.864C146.838 43.9493 146.817 44.0347 146.817 44.12ZM201.703 29.528C202.343 30.424 202.876 31.512 203.303 32.792L203.367 32.856V32.92C203.538 33.2613 203.751 33.7733 204.007 34.456C204.306 35.1387 204.455 35.9067 204.455 36.76C204.455 37.1013 204.434 37.4853 204.391 37.912C204.391 38.296 204.37 38.7227 204.327 39.192V39.512L204.199 39.64C204.199 39.5973 204.05 39.832 203.751 40.344C203.452 40.856 203.09 41.4747 202.663 42.2C202.279 42.8827 201.852 43.544 201.383 44.184C200.914 44.824 200.508 45.2507 200.167 45.464C199.826 45.6773 199.356 45.9333 198.759 46.232C198.204 46.5307 197.564 46.872 196.839 47.256L196.647 47C195.794 47.384 194.898 47.64 193.959 47.768C193.02 47.9387 192.06 48.024 191.079 48.024C190.226 48.024 189.372 47.9813 188.519 47.896C187.666 47.8533 186.855 47.7893 186.087 47.704C185.234 47.704 184.316 47.7467 183.335 47.832C182.396 47.96 181.458 48.024 180.519 48.024C179.922 48.024 179.324 47.9813 178.727 47.896C178.172 47.8107 177.66 47.6613 177.191 47.448C177.148 46.8507 177.127 46.232 177.127 45.592C177.127 44.952 177.127 44.312 177.127 43.672V39.832C177.127 35.9493 177.148 32.0667 177.191 28.184C177.276 24.3013 177.319 20.4187 177.319 16.536C177.319 12.8667 177.255 9.19733 177.127 5.528L177.191 2.712C177.362 2.41333 177.575 2.264 177.831 2.264C178.13 2.22133 178.407 2.15733 178.663 2.072C178.876 2.072 179.068 2.09333 179.239 2.136C179.452 2.136 179.666 2.136 179.879 2.136C181.543 2.136 183.228 2.02933 184.935 1.816C186.642 1.60266 188.327 1.496 189.991 1.496C191.826 1.496 193.362 1.688 194.599 2.072C195.836 2.456 196.882 3.01066 197.735 3.736C198.588 4.41866 199.314 5.22933 199.911 6.168C200.551 7.10666 201.17 8.152 201.767 9.304C202.45 11.0533 202.791 12.8027 202.791 14.552C202.791 16.728 202.258 18.6053 201.191 20.184C200.167 21.7627 198.866 23.1067 197.287 24.216C197.159 24.344 197.095 24.472 197.095 24.6C197.095 24.8987 197.244 25.1973 197.543 25.496L197.735 25.688C197.735 25.688 197.948 25.816 198.375 26.072C198.802 26.328 199.292 26.7547 199.847 27.352C200.444 27.9067 201.063 28.632 201.703 29.528ZM196.839 25.752C196.839 25.7093 196.86 25.688 196.903 25.688L196.519 25.432C196.007 25.1333 195.751 24.728 195.751 24.216C196.135 23.576 196.626 23.0427 197.223 22.616C197.82 22.1467 198.375 21.656 198.887 21.144C199.442 20.632 199.911 20.056 200.295 19.416C200.722 18.7333 200.935 17.8373 200.935 16.728V16.216C200.935 15.8747 200.914 15.6613 200.871 15.576V14.552C200.871 13.1013 200.658 11.7787 200.231 10.584C199.847 9.38933 199.356 8.344 198.759 7.448C198.162 6.552 197.522 5.82666 196.839 5.272C196.156 4.71733 195.559 4.35467 195.047 4.184C193.938 3.672 192.551 3.30933 190.887 3.096C189.223 2.88266 187.708 2.776 186.343 2.776C184.679 2.776 183.335 2.79733 182.311 2.84C181.33 2.84 180.562 2.86133 180.007 2.904C179.495 2.94667 179.154 2.98933 178.983 3.032C178.812 3.07466 178.727 3.096 178.727 3.096V3.352C178.727 3.608 178.706 3.75733 178.663 3.8V8.088C178.706 9.96533 178.727 11.544 178.727 12.824C178.77 14.104 178.791 15.256 178.791 16.28C178.791 17.2613 178.791 18.2 178.791 19.096C178.834 19.992 178.898 20.9947 178.983 22.104C178.812 23.512 178.706 24.9413 178.663 26.392C178.62 27.8427 178.599 29.3147 178.599 30.808C178.599 32.088 178.599 33.368 178.599 34.648C178.642 35.8853 178.663 37.1227 178.663 38.36H178.599C178.599 38.4027 178.556 38.296 178.471 38.04C178.386 38.1253 178.343 38.2747 178.343 38.488C178.343 38.5733 178.343 38.68 178.343 38.808C178.386 38.936 178.407 39.064 178.407 39.192C178.407 39.4907 178.386 39.8107 178.343 40.152C178.3 40.4933 178.279 40.856 178.279 41.24C178.279 41.8373 178.279 42.4773 178.279 43.16C178.322 43.8 178.343 44.4187 178.343 45.016V45.976C178.343 46.36 178.322 46.5947 178.279 46.68L179.879 46.744L179.111 46.936C180.562 46.808 182.076 46.744 183.655 46.744C184.594 46.744 185.511 46.7653 186.407 46.808C187.346 46.808 188.284 46.808 189.223 46.808C189.906 46.808 190.716 46.7867 191.655 46.744C192.636 46.7013 193.554 46.6373 194.407 46.552C195.303 46.424 196.071 46.2533 196.711 46.04C197.351 45.8267 197.714 45.5493 197.799 45.208C198.78 44.2267 199.612 43.416 200.295 42.776C200.978 42.0933 201.511 41.4533 201.895 40.856C202.322 40.2587 202.62 39.6187 202.791 38.936C203.004 38.2533 203.111 37.4 203.111 36.376C203.111 35.992 203.068 35.3947 202.983 34.584C202.898 33.7733 202.663 32.8773 202.279 31.896C201.938 30.872 201.383 29.8693 200.615 28.888C199.89 27.864 198.866 26.968 197.543 26.2C197.074 25.944 196.839 25.7947 196.839 25.752ZM188.007 28.568C188.988 28.6107 189.97 28.76 190.951 29.016C192.018 29.1867 192.892 29.784 193.575 30.808C194.258 31.832 194.599 33.0267 194.599 34.392C194.599 35.8 194.279 36.8453 193.639 37.528C193.042 38.2107 192.274 38.68 191.335 38.936C190.439 39.1493 189.458 39.256 188.391 39.256C187.367 39.2133 186.428 39.2133 185.575 39.256L184.679 38.68L185.063 28.376C186.044 28.4613 187.026 28.5253 188.007 28.568ZM184.935 12.696C184.935 12.1413 185.106 11.6933 185.447 11.352C185.874 11.3093 186.322 11.2667 186.791 11.224C187.26 11.1813 187.73 11.16 188.199 11.16C188.796 11.16 189.479 11.224 190.247 11.352C191.015 11.4373 191.719 11.6507 192.359 11.992C193.042 12.2907 193.596 12.7173 194.023 13.272C194.492 13.784 194.727 14.4453 194.727 15.256C194.727 16.4507 194.471 17.4107 193.959 18.136C193.49 18.8613 192.871 19.416 192.103 19.8C191.378 20.184 190.588 20.44 189.735 20.568C188.882 20.696 188.092 20.76 187.367 20.76C186.642 20.76 186.066 20.6747 185.639 20.504C185.212 20.3333 184.999 19.7573 184.999 18.776C184.999 18.0507 185.042 17.368 185.127 16.728C185.255 16.0453 185.319 15.3413 185.319 14.616V13.976C185.319 13.848 185.276 13.6133 185.191 13.272L184.999 14.04C184.999 13.8267 184.978 13.6133 184.935 13.4C184.935 13.144 184.935 12.9093 184.935 12.696ZM190.439 19.928C191.25 19.7573 191.954 19.3093 192.551 18.584L191.271 18.968C191.911 18.4987 192.423 17.9227 192.807 17.24C193.191 16.5573 193.383 15.8533 193.383 15.128C193.383 14.6587 193.255 14.2533 192.999 13.912C192.743 13.5707 192.423 13.2933 192.039 13.08C191.698 12.824 191.314 12.6533 190.887 12.568C190.46 12.44 190.076 12.376 189.735 12.376C189.18 12.376 188.626 12.312 188.071 12.184C187.559 12.056 187.068 11.992 186.599 11.992C186.514 11.992 186.386 12.0133 186.215 12.056C186.087 12.056 185.916 12.0773 185.703 12.12C185.703 12.888 185.682 13.6987 185.639 14.552C185.596 15.4053 185.575 16.2587 185.575 17.112C185.575 18.2213 185.639 19.224 185.767 20.12C186.108 20.12 186.45 20.1413 186.791 20.184C187.175 20.184 187.538 20.184 187.879 20.184C188.775 20.184 189.628 20.0987 190.439 19.928ZM190.183 38.232C190.951 38.0187 191.527 37.5493 191.911 36.824C192.252 36.3973 192.487 35.9493 192.615 35.48C192.786 34.968 192.871 34.456 192.871 33.944C192.871 32.8347 192.615 32.024 192.103 31.512C191.591 31 190.951 30.6587 190.183 30.488C189.458 30.3173 188.69 30.2533 187.879 30.296C187.068 30.296 186.364 30.2747 185.767 30.232V33.88C185.767 34.4347 185.767 34.904 185.767 35.288C185.81 35.672 185.831 35.992 185.831 36.248C185.831 37.2293 185.746 37.912 185.575 38.296C185.618 38.3387 185.724 38.36 185.895 38.36H186.343C186.599 38.36 186.855 38.4027 187.111 38.488C187.367 38.5307 187.751 38.552 188.263 38.552C188.818 38.552 189.458 38.4453 190.183 38.232Z" fill="white"/>
<path d="M94.754 28.696C95.138 27.3307 95.5647 25.9867 96.034 24.664L89.506 3.224C89.5487 2.92533 89.6553 2.69066 89.826 2.52C89.7833 2.47733 89.6767 2.456 89.506 2.456C89.5913 2.24266 89.7407 2.09333 89.954 2.008C90.21 1.92266 90.4233 1.816 90.594 1.688H92.898C92.77 1.944 92.5993 2.02933 92.386 1.944C92.1727 1.85866 92.066 1.96533 92.066 2.264C92.706 2.392 93.602 2.456 94.754 2.456C94.9673 2.456 95.074 2.41333 95.074 2.328C95.074 2.24266 94.9247 2.2 94.626 2.2C94.37 2.15733 94.0713 2.09333 93.73 2.008V1.944C93.8153 1.90133 94.0713 1.88 94.498 1.88C94.8393 1.88 95.202 1.92266 95.586 2.008C95.97 2.05067 96.3327 2.072 96.674 2.072C96.9727 2.072 97.1433 2.05067 97.186 2.008C97.2287 2.17866 97.3567 2.264 97.57 2.264C97.6553 2.264 97.7407 2.264 97.826 2.264C97.9113 2.22133 97.9967 2.2 98.082 2.2C98.2527 2.2 98.3593 2.22133 98.402 2.264L98.53 1.944C98.8287 1.944 98.978 2.072 98.978 2.328C98.978 2.54133 99.0847 2.648 99.298 2.648C99.4687 2.648 99.5753 2.62667 99.618 2.584C100.173 3.82133 100.685 5.08 101.154 6.36C101.623 7.64 102.05 8.83466 102.434 9.944C102.861 11.0107 103.223 11.8853 103.522 12.568C103.821 13.2507 104.077 13.592 104.29 13.592C104.418 13.592 104.525 13.4 104.61 13.016C104.695 12.5893 104.845 12.1413 105.058 11.672L104.994 12.184C105.25 11.1173 105.485 10.1573 105.698 9.304C105.911 8.45066 106.125 7.64 106.338 6.872C106.551 6.06133 106.743 5.22933 106.914 4.376C107.127 3.48 107.341 2.47733 107.554 1.368H108.258C109.069 1.368 109.581 1.41066 109.794 1.496C110.05 1.53866 110.306 1.56 110.562 1.56C110.861 1.56 111.031 1.53866 111.074 1.496C110.946 1.66667 110.754 1.73067 110.498 1.688C110.242 1.64533 110.007 1.66666 109.794 1.752C110.007 1.79467 110.199 1.83733 110.37 1.88C110.541 1.88 110.669 1.88 110.754 1.88H112.738C112.823 1.88 112.951 1.88 113.122 1.88C113.293 1.83733 113.485 1.79467 113.698 1.752L113.826 1.496C114.253 1.28267 114.722 1.176 115.234 1.176C115.746 1.176 116.237 1.09067 116.706 0.919998C116.706 1.00533 116.706 1.06933 116.706 1.112C116.749 1.112 116.77 1.15467 116.77 1.24L116.642 1.432C116.898 1.56 117.133 1.624 117.346 1.624C117.431 1.624 117.495 1.624 117.538 1.624C117.581 1.58133 117.645 1.56 117.73 1.56C117.133 3.43733 116.493 5.35733 115.81 7.32C115.17 9.28267 114.53 11.2667 113.89 13.272C113.293 15.2347 112.717 17.2187 112.162 19.224C111.65 21.2293 111.245 23.2133 110.946 25.176L116.962 47L116.45 46.808C115.597 46.808 114.722 46.8507 113.826 46.936C112.973 46.9787 112.119 47 111.266 47C110.711 47 110.178 46.9787 109.666 46.936C109.197 46.8933 108.749 46.8293 108.322 46.744L107.938 46.232C107.255 44.056 106.658 41.8587 106.146 39.64C105.634 37.4213 104.909 35.288 103.97 33.24H103.778C103.266 34.1787 102.839 35.16 102.498 36.184C102.157 37.1653 101.837 38.168 101.538 39.192C101.239 40.1733 100.919 41.176 100.578 42.2C100.237 43.1813 99.8313 44.1413 99.362 45.08C99.4047 45.08 99.426 45.1227 99.426 45.208C99.426 45.4213 99.4047 45.5707 99.362 45.656L99.298 45.592C99.298 45.976 99.234 46.232 99.106 46.36C98.978 46.4453 98.8073 46.5093 98.594 46.552C98.4233 46.552 98.1887 46.5733 97.89 46.616C97.5913 46.616 97.2927 46.7227 96.994 46.936C96.482 46.8933 95.906 46.8293 95.266 46.744C94.6687 46.6587 94.0927 46.616 93.538 46.616C93.1967 46.616 92.8553 46.6373 92.514 46.68C92.2153 46.68 91.8953 46.68 91.554 46.68C91.2127 46.68 90.8927 46.68 90.594 46.68C90.2953 46.6373 89.9967 46.5307 89.698 46.36C89.7833 45.5067 89.9753 44.7173 90.274 43.992C90.6153 43.224 90.8287 42.4133 90.914 41.56L90.978 41.624L91.17 41.048C91.9807 39.2133 92.514 37.912 92.77 37.144C93.0687 36.376 93.2393 35.8213 93.282 35.48C93.3247 35.096 93.3247 34.776 93.282 34.52C93.282 34.2213 93.41 33.6453 93.666 32.792C94.05 31.4267 94.4127 30.0613 94.754 28.696ZM112.482 46.04C112.866 45.9973 113.229 45.976 113.57 45.976H113.634L114.786 45.784C114.743 45.5707 114.701 45.3573 114.658 45.144C114.658 44.888 114.658 44.6533 114.658 44.44C114.658 44.0987 114.722 43.7573 114.85 43.416C114.807 42.0507 114.53 40.7067 114.018 39.384C113.506 38.0187 112.951 36.9733 112.354 36.248C112.269 35.864 112.119 35.3307 111.906 34.648C111.735 33.9653 111.543 33.2827 111.33 32.6C111.117 31.8747 110.925 31.2347 110.754 30.68C110.626 30.1253 110.562 29.784 110.562 29.656V29.208C110.562 28.7813 110.605 28.5253 110.69 28.44L110.754 28.504C110.669 27.992 110.562 27.48 110.434 26.968C110.349 26.456 110.263 25.9227 110.178 25.368C110.178 25.5813 110.157 25.752 110.114 25.88C110.114 25.9653 110.071 26.0933 109.986 26.264C109.858 26.008 109.773 25.752 109.73 25.496C109.73 25.1973 109.687 24.9413 109.602 24.728C109.815 24.216 109.943 23.704 109.986 23.192C110.071 22.68 110.285 22.2107 110.626 21.784C110.583 21.7413 110.562 21.592 110.562 21.336C110.562 20.7387 110.711 20.184 111.01 19.672C111.351 19.16 111.522 18.6053 111.522 18.008C111.522 17.6667 111.501 17.4533 111.458 17.368C111.501 16.728 111.693 16.088 112.034 15.448C112.375 14.7653 112.61 14.0613 112.738 13.336C112.951 12.8667 113.25 12.0987 113.634 11.032C114.018 9.92267 114.466 8.472 114.978 6.68V7.832C115.021 7.832 115.085 7.576 115.17 7.064C115.255 6.552 115.362 6.06133 115.49 5.592L115.234 5.528C115.362 5.144 115.426 4.71733 115.426 4.248C115.426 3.77866 115.639 3.43733 116.066 3.224C115.895 3.05333 115.597 2.968 115.17 2.968H114.21C113.698 3.18133 113.229 3.288 112.802 3.288C112.375 3.288 111.97 3.24533 111.586 3.16C111.202 3.07466 110.797 3.032 110.37 3.032C109.986 3.032 109.602 3.096 109.218 3.224C108.578 4.504 108.002 5.86933 107.49 7.32C107.021 8.728 106.551 10.1787 106.082 11.672C105.655 13.1653 105.229 14.6587 104.802 16.152C104.375 17.6027 103.927 18.9893 103.458 20.312L103.33 20.376C103.287 20.376 103.181 20.2907 103.01 20.12C102.413 17.304 101.751 14.488 101.026 11.672C100.301 8.856 99.49 6.104 98.594 3.416C97.9113 3.20266 97.2287 3.07466 96.546 3.032C95.906 2.98933 95.2447 2.968 94.562 2.968C93.9647 2.968 93.346 2.98933 92.706 3.032C92.066 3.032 91.4473 3.032 90.85 3.032L90.914 3.608C91.3833 4.93067 91.8313 6.12533 92.258 7.192C92.6847 8.216 93.0687 9.19733 93.41 10.136C93.794 11.032 94.1353 11.928 94.434 12.824C94.7753 13.6773 95.0953 14.616 95.394 15.64C95.778 16.92 96.0127 17.816 96.098 18.328C96.226 18.7973 96.3327 19.224 96.418 19.608L96.354 19.544C96.6527 19.9707 96.802 20.4827 96.802 21.08V21.4L96.482 21.272C96.482 21.5707 96.5033 21.784 96.546 21.912C96.5887 21.9973 96.61 22.104 96.61 22.232L96.802 22.04C96.93 22.1253 96.994 22.2107 96.994 22.296C96.994 22.3813 96.9513 22.488 96.866 22.616C96.8233 22.7013 96.802 22.7867 96.802 22.872C96.9727 23.256 97.058 23.832 97.058 24.6C97.058 25.3253 96.8233 26.4987 96.354 28.12C95.9273 29.7413 95.394 31.576 94.754 33.624C94.1567 35.6293 93.538 37.7413 92.898 39.96C92.258 42.136 91.746 44.1413 91.362 45.976C91.6607 46.0187 92.194 46.04 92.962 46.04C93.7727 46.04 94.8393 46.04 96.162 46.04C96.4607 46.04 96.738 46.04 96.994 46.04C97.25 46.04 97.5273 46.0187 97.826 45.976C98.0393 44.7813 98.4873 43.5653 99.17 42.328C99.8527 41.0907 100.386 39.9173 100.77 38.808C101.111 37.3147 101.581 35.8853 102.178 34.52C102.775 33.112 103.223 31.6613 103.522 30.168C103.906 30.2533 104.119 30.488 104.162 30.872C104.205 31.2133 104.333 31.4907 104.546 31.704C105.101 34.264 105.826 36.7173 106.722 39.064C107.661 41.368 108.685 43.672 109.794 45.976C110.05 46.0187 110.306 46.0613 110.562 46.104C110.818 46.104 111.095 46.104 111.394 46.104C111.735 46.104 112.098 46.0827 112.482 46.04ZM113.634 45.976L113.506 45.848L113.57 45.976H113.634Z" fill="#2B4EFF"/>
</svg>
