<?xml version="1.0" standalone="no"?>
<!DOCTYPE svg PUBLIC "-//W3C//DTD SVG 20010904//EN"
 "http://www.w3.org/TR/2001/REC-SVG-20010904/DTD/svg10.dtd">
<svg version="1.0" xmlns="http://www.w3.org/2000/svg"
 width="1329.225253pt" height="1703.670855pt" viewBox="0 0 1329.225253 1703.670855"
 preserveAspectRatio="xMidYMid meet">
<metadata>
Created by potrace 1.16, written by Peter Selinger 2001-2019
</metadata>
<g transform="translate(-336.208526,1863.832277) scale(0.100000,-0.100000)"
fill="#000000" stroke="none">
<path d="M9953 18608 c-6 -18 -19 -60 -28 -93 -10 -33 -52 -172 -94 -310 l-77
-250 -369 -1 c-203 -1 -371 -6 -372 -10 -1 -5 11 -18 27 -29 261 -177 549
-383 550 -394 0 -7 -9 -41 -20 -75 -59 -182 -137 -412 -166 -495 -21 -57 -31
-98 -25 -104 5 -5 51 23 113 70 58 43 140 103 183 133 43 30 110 78 149 107
39 29 75 48 80 43 4 -4 1 -32 -7 -62 -8 -29 -22 -89 -32 -133 -102 -468 -287
-884 -511 -1149 -112 -132 -309 -267 -469 -321 -123 -41 -395 -61 -471 -33
-17 6 -40 8 -50 4 -18 -7 -17 -9 6 -28 75 -61 212 -106 347 -115 148 -9 135
-32 -36 -63 -29 -6 -71 -10 -92 -10 -106 0 18 -48 146 -57 148 -10 367 46 482
122 85 56 90 47 30 -54 -48 -81 -144 -174 -195 -191 -46 -14 -60 -27 -46 -40
12 -11 154 13 225 38 80 28 115 48 197 109 41 30 76 52 79 49 12 -11 -23 -60
-92 -131 -114 -116 -248 -195 -400 -235 -16 -5 -56 -15 -87 -24 -32 -9 -115
-18 -185 -20 -145 -5 -163 -16 -96 -60 94 -61 236 -84 386 -63 72 11 74 -1 12
-78 -25 -31 -43 -60 -40 -65 17 -28 286 32 355 80 38 26 92 42 104 30 6 -6 -7
-28 -39 -62 -70 -78 -101 -104 -196 -167 -152 -102 -330 -144 -512 -123 -122
15 -279 54 -363 92 -62 28 -209 125 -277 182 -54 46 -65 28 -32 -53 63 -157
184 -298 316 -372 52 -29 189 -80 277 -103 24 -7 11 -30 -26 -46 -69 -30 -177
-59 -228 -61 -68 -3 -66 -26 6 -51 79 -28 309 -34 400 -11 82 21 188 58 241
86 63 31 68 14 23 -71 -44 -81 -124 -166 -201 -216 -29 -19 -53 -38 -53 -44 0
-14 76 -12 138 4 53 15 184 77 213 102 19 17 33 6 18 -12 -19 -23 17 -28 48
-7 15 10 42 25 58 33 42 20 247 228 268 272 32 68 53 60 33 -12 -16 -58 -21
-70 -63 -159 -71 -154 -288 -333 -509 -422 -530 -212 -1004 -137 -1345 213
-47 48 -89 88 -92 88 -27 0 58 -189 134 -302 48 -70 156 -178 216 -216 24 -15
43 -30 43 -34 0 -3 -16 -15 -35 -27 -19 -11 -35 -27 -35 -35 0 -14 63 -39 133
-51 28 -6 37 -12 35 -24 -3 -14 -19 -16 -108 -16 -58 0 -121 2 -140 5 -61 9
-42 -21 40 -63 84 -42 201 -67 317 -67 39 0 74 -4 77 -9 5 -8 -53 -54 -98 -76
-11 -6 -21 -17 -21 -25 0 -12 16 -14 85 -12 93 3 170 25 259 74 66 37 81 27
51 -32 -34 -68 -104 -134 -216 -207 -56 -36 -100 -71 -97 -76 9 -15 210 -1
289 21 109 29 169 64 293 168 125 106 148 111 116 27 -9 -26 -26 -62 -36 -80
-10 -18 -14 -35 -10 -37 12 -8 158 95 252 176 45 39 85 66 89 62 23 -24 -78
-232 -165 -342 -165 -208 -421 -367 -740 -461 -190 -56 -428 -57 -692 -5 l-23
4 0 271 c0 262 1 271 20 276 16 4 20 14 20 48 0 36 -4 44 -22 49 l-23 6 24 18
c14 11 22 26 19 38 -3 17 -17 20 -165 26 -89 4 -197 4 -240 0 -73 -7 -78 -9
-81 -31 -3 -16 3 -30 15 -39 17 -12 17 -14 1 -23 -27 -15 -24 -73 4 -91 22
-15 22 -19 20 -183 -1 -92 -5 -171 -8 -176 -8 -14 -119 68 -177 131 -28 30
-73 86 -100 123 -33 45 -53 65 -60 58 -16 -16 30 -142 84 -226 28 -43 47 -80
44 -83 -9 -9 -46 12 -143 83 -112 80 -134 77 -81 -11 76 -128 224 -246 392
-313 61 -25 66 -31 42 -51 -12 -10 -35 -11 -93 -5 -126 13 -157 12 -157 -5 0
-20 111 -93 182 -120 128 -48 342 -89 466 -90 43 0 57 -4 57 -14 0 -16 -46
-54 -98 -80 -18 -10 -30 -22 -26 -28 10 -16 235 0 323 23 103 28 114 13 42
-51 -54 -48 -95 -73 -178 -114 -24 -11 -43 -23 -43 -27 0 -19 82 -34 185 -33
164 2 255 42 400 178 86 81 123 109 135 101 6 -4 8 -16 5 -28 -3 -12 -11 -40
-17 -62 -13 -51 -64 -158 -100 -212 -16 -23 -71 -93 -123 -155 -62 -73 -91
-116 -85 -122 13 -13 99 9 160 39 87 44 201 139 269 225 16 20 22 23 32 12 10
-9 11 -19 2 -42 -16 -42 1 -47 45 -14 39 29 198 186 270 267 23 26 45 47 47
47 28 0 -50 -169 -151 -327 -118 -185 -457 -440 -689 -518 -184 -62 -340 -59
-477 9 -63 32 -68 32 -68 5 0 -14 26 -47 69 -89 52 -50 67 -70 58 -79 -14 -14
-216 -15 -289 -1 -273 54 -445 136 -567 272 -52 59 -70 25 -30 -55 59 -115
139 -206 257 -292 34 -25 62 -50 62 -55 0 -25 -278 -4 -412 32 -76 20 -108 19
-108 -2 0 -17 161 -130 236 -166 75 -35 178 -65 287 -84 37 -7 69 -16 72 -20
7 -12 -110 -97 -183 -133 -34 -17 -61 -36 -59 -42 3 -6 43 -10 104 -9 117 1
190 21 337 89 54 25 102 43 107 40 15 -10 -17 -72 -76 -147 -30 -39 -55 -75
-55 -79 0 -14 20 -21 33 -12 7 5 30 15 52 22 22 7 88 37 146 67 59 29 146 69
195 88 49 18 129 53 177 76 81 38 117 45 117 21 0 -5 -40 -51 -89 -102 -96
-102 -192 -167 -287 -196 -30 -10 -54 -23 -54 -30 0 -17 155 -18 267 -2 90 13
244 61 284 90 15 10 30 19 33 19 3 0 33 18 67 40 60 39 89 49 89 32 0 -19
-273 -273 -360 -334 -76 -54 -296 -173 -405 -219 -36 -15 -179 -61 -215 -70
-249 -56 -312 -64 -540 -62 -122 1 -227 6 -242 12 l-28 11 0 294 0 295 28 3
c25 3 27 7 30 51 3 42 0 49 -17 54 -24 6 -27 21 -6 29 20 8 27 37 16 68 l-11
26 -280 0 -280 0 -6 -26 c-8 -31 10 -74 31 -74 24 0 18 -18 -7 -22 -21 -3 -23
-9 -23 -58 0 -52 1 -55 25 -55 23 0 25 -4 31 -65 4 -36 7 -141 8 -233 1 -138
-2 -169 -14 -173 -12 -5 -71 23 -225 109 -66 36 -185 130 -263 208 -42 42 -80
73 -83 68 -6 -10 28 -114 53 -163 35 -67 105 -164 167 -231 60 -63 75 -85 61
-85 -35 0 -265 75 -315 102 -19 11 -52 29 -72 41 -82 45 -56 -16 52 -123 112
-112 260 -182 519 -246 61 -15 111 -31 111 -35 0 -29 -222 -131 -379 -176 -12
-3 -12 -6 0 -19 12 -11 51 -16 153 -21 103 -5 139 -10 143 -20 3 -7 -16 -61
-41 -118 -78 -175 -90 -247 -52 -326 17 -36 51 -63 66 -54 6 4 10 27 10 53 0
66 23 146 42 150 20 4 38 -65 38 -142 0 -30 5 -58 11 -62 20 -12 64 32 82 82
17 43 17 58 8 118 -7 40 -28 104 -53 154 -41 86 -58 155 -41 165 17 11 375 29
384 20 10 -10 -84 -89 -140 -118 -17 -8 -31 -19 -31 -24 0 -5 24 -12 53 -15
84 -11 184 16 361 96 60 27 112 46 117 41 17 -17 -65 -143 -151 -232 -62 -63
-188 -151 -276 -192 -46 -21 -84 -43 -84 -49 0 -28 282 9 428 56 65 21 75 25
176 75 74 37 108 62 200 151 65 63 115 103 120 98 21 -21 -37 -326 -77 -405
-28 -56 -90 -146 -121 -174 -53 -49 -25 -54 67 -12 104 48 202 115 268 185 44
46 65 42 43 -9 -17 -41 -6 -52 35 -30 50 25 176 159 316 333 34 43 62 69 67
64 5 -5 12 -42 15 -81 8 -96 22 -101 85 -30 44 50 61 78 99 167 15 35 53 57
121 71 24 5 73 18 110 29 37 11 70 17 73 12 6 -9 -116 -236 -176 -330 -127
-196 -330 -389 -489 -462 -102 -47 -113 -50 -247 -88 -44 -13 -73 -26 -73 -34
0 -7 23 -23 51 -35 62 -25 58 -33 -33 -78 -122 -60 -215 -95 -348 -133 -25 -7
-58 -16 -74 -21 -42 -13 -277 -11 -333 2 -58 14 -153 49 -171 62 -9 7 -16 7
-24 -1 -16 -16 64 -136 109 -163 18 -12 32 -26 30 -32 -2 -6 -23 -16 -48 -22
-64 -17 -265 -39 -278 -31 -7 5 -11 79 -11 232 0 205 2 225 18 231 36 13 44
66 15 89 -17 13 -17 15 0 28 11 9 17 24 15 38 l-3 23 -214 3 c-165 2 -216 -1
-223 -10 -11 -18 -10 -25 8 -43 11 -11 13 -19 6 -28 -5 -7 -13 -27 -17 -44 -6
-29 -3 -34 19 -44 l26 -12 0 -228 c0 -134 -4 -230 -10 -234 -5 -3 -46 4 -92
15 -166 41 -255 86 -376 187 -62 53 -76 42 -42 -33 39 -90 172 -244 209 -244
6 0 11 -7 11 -16 0 -13 -8 -15 -42 -9 -215 32 -408 98 -504 171 -27 21 -54 31
-54 20 0 -2 12 -24 26 -49 66 -119 257 -245 434 -286 105 -24 166 -33 359 -54
49 -6 -1 -47 -172 -142 -48 -27 -86 -54 -84 -59 10 -28 389 1 513 39 139 42
131 -20 -13 -90 -78 -39 -87 -65 -16 -46 21 5 65 15 98 22 68 13 175 42 255
69 89 29 152 42 162 32 11 -11 -104 -156 -157 -197 -21 -17 -72 -48 -114 -70
-99 -53 -101 -65 -14 -65 144 0 281 44 448 143 119 71 362 197 381 197 26 0
25 -21 -3 -62 -45 -67 -78 -147 -66 -159 13 -13 140 75 347 242 106 85 124 95
133 73 6 -16 -27 -89 -102 -222 -19 -35 -35 -65 -35 -68 0 -15 38 6 130 71 58
41 142 98 188 127 45 29 126 81 180 115 56 36 101 58 106 53 5 -5 3 -15 -5
-23 -8 -8 -49 -55 -91 -103 -78 -90 -205 -212 -281 -269 -124 -93 -158 -117
-222 -155 -77 -48 -227 -116 -320 -147 -288 -97 -545 -137 -723 -114 -98 13
-226 42 -272 62 -66 29 -128 64 -162 91 -21 16 -43 26 -49 22 -16 -10 -3 -62
26 -100 14 -18 25 -38 25 -44 0 -21 -131 1 -260 43 -25 8 -67 21 -95 30 -152
48 -260 97 -380 174 -83 53 -206 152 -255 205 -40 43 -65 50 -55 16 14 -45 76
-155 127 -223 92 -122 186 -207 320 -290 45 -27 82 -54 82 -60 1 -15 -64 -24
-125 -18 -35 3 -59 2 -63 -5 -9 -16 62 -70 124 -93 203 -78 368 -128 423 -129
18 0 27 -5 25 -12 -8 -24 -64 -44 -283 -104 -92 -26 -115 -37 -97 -48 6 -3 64
-20 129 -37 95 -24 147 -31 264 -36 183 -7 310 6 547 59 102 22 119 18 108
-25 -13 -53 -190 -200 -307 -256 -37 -17 -73 -31 -81 -31 -8 0 -18 -4 -23 -8
-31 -28 -239 -38 -410 -20 -21 2 -30 -2 -33 -14 -4 -21 109 -76 235 -115 79
-24 102 -26 233 -25 113 1 173 7 270 26 69 15 131 27 139 29 31 5 19 -24 -34
-86 -30 -36 -55 -68 -55 -71 0 -3 11 -6 24 -6 73 0 374 171 522 296 35 30 66
49 69 44 8 -13 -4 -90 -25 -161 -11 -34 -14 -61 -9 -65 15 -9 62 31 130 108
109 126 162 178 227 220 81 53 94 44 62 -44 -55 -154 -166 -330 -254 -401 -46
-39 -202 -137 -216 -137 -4 0 -13 -7 -20 -15 -28 -34 57 -29 210 12 30 8 66
17 79 20 46 11 216 100 374 197 87 53 161 96 164 96 2 0 18 10 35 21 21 15 33
18 40 11 8 -8 -21 -43 -103 -125 -63 -62 -139 -133 -169 -158 -30 -24 -57 -47
-60 -50 -9 -11 -230 -153 -330 -211 -237 -139 -396 -184 -567 -158 -88 13
-113 10 -113 -14 0 -15 56 -57 113 -86 15 -7 26 -18 24 -24 -7 -21 -215 -82
-387 -113 -107 -19 -470 -25 -599 -9 -61 7 -73 6 -69 -5 6 -18 144 -87 182
-91 16 -2 31 -8 33 -14 5 -14 -196 -28 -317 -22 l-75 3 0 360 0 359 25 6 c22
5 25 12 28 59 3 46 1 53 -17 58 -27 7 -27 30 -1 38 28 9 28 70 1 85 -22 11
-501 13 -566 2 -37 -7 -40 -10 -43 -45 -3 -32 0 -38 23 -47 31 -12 28 -32 -6
-40 -46 -11 -35 -115 13 -122 20 -3 24 -10 29 -68 4 -36 7 -186 8 -333 1 -305
7 -288 -87 -268 -311 68 -613 200 -832 364 -91 69 -219 197 -276 278 -64 91
-80 107 -96 91 -22 -22 59 -232 147 -381 70 -117 268 -342 367 -416 21 -15 35
-32 31 -38 -5 -8 -422 -4 -648 7 -20 1 -30 -4 -33 -15 -2 -13 24 -30 100 -67
212 -104 377 -140 697 -150 145 -5 206 -10 208 -19 6 -18 -119 -106 -219 -155
-107 -53 -115 -73 -25 -64 95 10 182 29 332 75 145 43 143 43 149 33 3 -5 -30
-44 -75 -86 -81 -78 -199 -161 -305 -214 -63 -31 -211 -87 -257 -97 -16 -3
-27 -11 -24 -18 5 -17 230 -22 337 -7 52 8 160 38 275 77 105 36 202 67 218
70 63 12 11 -66 -77 -116 -95 -53 -88 -76 12 -43 37 12 87 28 112 36 97 31
237 92 479 209 30 15 70 30 89 33 l35 7 -7 -39 c-4 -22 -24 -61 -45 -89 -20
-27 -49 -66 -63 -86 -83 -113 -202 -215 -353 -302 -124 -72 -336 -157 -392
-157 -30 0 -30 -26 0 -34 43 -11 278 -6 370 9 157 25 315 72 482 142 67 28
115 41 115 30 0 -17 -45 -116 -69 -152 -36 -54 -37 -55 -13 -55 16 0 110 53
122 69 3 4 57 42 120 85 137 94 302 225 463 370 104 93 157 126 157 97 0 -12
-24 -69 -96 -229 -25 -55 -29 -78 -16 -86 8 -4 113 93 318 296 112 110 144
130 128 81 -16 -49 -121 -275 -157 -337 -98 -170 -313 -384 -493 -492 -65 -39
78 -16 198 32 196 78 340 175 501 336 54 54 100 98 103 98 9 0 3 -90 -11 -165
-9 -44 -20 -111 -25 -150 -5 -38 -13 -80 -16 -92 -16 -57 31 -14 172 157 129
157 380 390 421 390 17 0 43 -59 43 -100 0 -42 16 -37 41 13 41 80 117 182
176 237 58 54 206 172 224 178 14 6 11 -36 -12 -133 -60 -256 -84 -294 -343
-557 -117 -120 -211 -219 -209 -222 6 -6 64 4 78 14 6 4 37 17 70 30 33 13 71
31 85 41 41 28 137 79 149 79 19 0 12 -29 -26 -98 -123 -226 -252 -368 -454
-499 -67 -43 -243 -123 -272 -123 -26 0 -87 -22 -87 -30 0 -23 183 -3 331 35
235 61 529 220 714 386 22 20 56 50 76 68 l37 31 -5 -64 c-3 -36 -3 -73 1 -82
6 -16 9 -16 29 7 57 62 251 347 317 464 9 17 50 93 90 170 80 154 94 175 110
159 20 -20 33 -129 22 -181 -17 -78 -7 -74 70 34 31 43 75 113 97 156 55 102
102 166 124 166 13 1 17 -4 13 -17 -3 -9 -8 -35 -12 -57 -6 -41 -25 -113 -43
-173 -20 -67 -143 -267 -222 -363 -21 -25 -63 -65 -94 -89 -30 -23 -52 -47
-49 -52 7 -11 66 -4 151 18 88 23 213 89 279 148 52 47 172 206 186 247 2 7
10 9 16 5 8 -5 12 -36 12 -86 0 -43 5 -82 10 -85 9 -6 55 82 104 202 33 79 76
134 154 197 77 61 99 68 106 33 2 -12 11 -53 20 -92 25 -113 43 -250 57 -412
29 -361 -61 -849 -211 -1143 -34 -67 -108 -99 -275 -120 -168 -20 -280 -39
-390 -67 -57 -14 -75 -19 -160 -43 -19 -5 -50 -14 -67 -19 -18 -5 -62 -18 -98
-29 -466 -145 -678 -187 -1018 -202 -247 -12 -316 -25 -310 -59 4 -18 31 -22
468 -61 58 -5 152 -14 210 -20 388 -37 496 -41 965 -37 259 2 565 10 680 18
289 19 1169 18 1565 -1 530 -26 773 -18 1185 40 44 7 112 16 150 21 39 6 223
12 410 15 336 5 385 10 385 40 0 37 -379 107 -860 158 -136 15 -181 20 -405
46 -263 31 -395 56 -590 111 -60 17 -122 33 -137 36 -14 3 -54 19 -88 37 -49
24 -68 41 -88 76 -32 59 -62 112 -100 181 -98 178 -185 487 -222 788 -19 160
-10 623 16 759 7 36 28 36 111 2 211 -87 268 -125 327 -219 50 -78 78 -43 45
56 -44 134 0 108 266 -155 168 -167 207 -200 335 -284 80 -53 163 -105 185
-117 78 -41 87 -19 20 52 -54 57 -163 216 -186 272 -64 155 -69 175 -41 175
22 0 44 -24 178 -190 109 -134 229 -254 245 -244 7 4 6 10 -1 19 -33 40 -94
395 -70 410 11 7 43 -17 120 -89 64 -61 303 -251 401 -320 99 -69 263 -156
296 -156 37 0 27 23 -40 91 -82 85 -160 190 -149 201 4 4 50 -9 103 -30 52
-21 112 -43 134 -49 151 -43 189 -54 265 -78 209 -65 334 -90 495 -99 202 -10
266 22 128 64 -99 29 -183 65 -278 118 -458 253 -705 472 -838 741 -59 118
-47 135 29 43 62 -73 251 -280 284 -309 25 -23 50 -30 50 -15 0 4 -8 21 -18
37 -38 62 -97 245 -79 245 7 0 213 -130 407 -257 175 -115 370 -213 423 -213
20 0 37 4 37 9 0 6 -24 26 -52 45 -61 40 -175 152 -165 162 3 4 32 -6 64 -21
201 -95 395 -147 589 -159 95 -6 134 -2 134 13 0 6 -13 12 -115 52 -161 62
-295 149 -407 262 -91 93 -178 211 -178 242 0 11 33 4 58 -13 44 -31 223 -118
287 -140 72 -24 91 -29 181 -42 38 -5 79 -13 92 -16 16 -5 22 -2 22 10 0 11
-26 23 -87 42 -49 15 -108 40 -133 57 -80 54 -174 160 -214 240 -66 132 -33
151 89 52 117 -96 284 -175 575 -271 25 -9 59 -21 75 -29 98 -44 240 -95 252
-91 11 4 9 14 -10 43 -13 21 -48 86 -78 145 -66 131 -60 152 22 85 112 -90
173 -125 294 -166 70 -23 242 -43 299 -33 41 7 53 24 21 31 -39 7 -173 85
-261 152 -114 86 -193 170 -284 301 -67 97 -82 128 -60 128 17 0 110 -42 257
-116 209 -105 297 -139 513 -195 93 -25 142 -32 255 -35 139 -5 230 3 230 21
0 5 -29 16 -65 26 -173 44 -341 136 -515 279 -60 50 -126 122 -122 133 8 24
145 11 292 -28 77 -20 181 -46 230 -57 98 -21 266 -29 271 -13 2 6 -31 27 -74
47 -108 51 -217 115 -215 125 1 4 30 16 65 25 231 61 517 208 665 342 50 45
126 151 151 208 19 45 -4 43 -61 -7 -71 -63 -225 -136 -387 -185 -197 -59
-441 -103 -454 -82 -3 6 11 22 32 38 167 125 344 368 412 565 21 63 30 86 50
132 17 37 16 71 -1 74 -9 2 -30 -18 -55 -54 -71 -104 -195 -219 -324 -302 -77
-50 -250 -138 -335 -170 -77 -29 -106 -41 -127 -52 -10 -5 -29 -9 -43 -9 l-25
0 0 200 0 200 25 10 c21 8 25 16 25 51 0 32 -4 42 -20 46 -25 7 -26 19 -1 26
19 4 33 50 24 74 -4 10 -62 13 -279 13 l-274 0 -6 -24 c-7 -29 11 -66 31 -66
22 0 18 -14 -7 -25 -40 -17 -36 -91 5 -97 l22 -3 3 -244 c1 -135 -1 -248 -6
-253 -4 -4 -90 -13 -189 -20 -145 -10 -211 -9 -329 1 -373 33 -676 110 -974
248 -30 14 -86 40 -125 58 -163 75 -600 362 -568 372 6 2 47 -14 90 -35 133
-67 228 -95 382 -112 103 -11 176 -7 187 11 3 5 -9 15 -28 21 -66 23 -179 88
-260 150 -167 126 -254 236 -344 435 -58 130 -57 141 9 107 83 -43 178 -120
247 -201 132 -153 142 -163 162 -163 16 0 19 5 15 23 -28 122 -39 189 -31 197
8 7 45 -19 174 -123 28 -23 185 -113 244 -141 89 -41 156 -62 189 -57 5 0 -21
33 -57 73 -62 66 -78 98 -45 90 8 -2 57 -15 109 -28 120 -31 265 -54 344 -54
132 0 377 66 384 103 3 15 -7 17 -82 17 -252 0 -507 120 -658 310 -57 72 -41
95 51 70 83 -22 169 -42 211 -50 277 -52 443 -66 610 -51 68 6 129 16 133 20
13 13 -1 31 -22 31 -10 0 -61 18 -115 39 -53 22 -125 50 -159 61 -100 34 -117
42 -117 52 0 5 15 6 34 3 47 -9 54 9 17 44 -17 16 -27 31 -24 35 3 3 29 6 57
6 28 0 132 7 231 15 99 8 221 18 272 21 135 10 149 28 45 60 -125 38 -198 94
-122 94 37 0 98 14 220 52 153 46 241 88 334 159 67 51 136 145 136 186 0 30
-5 29 -53 -12 -76 -65 -216 -124 -371 -155 -165 -33 -184 -26 -78 31 125 68
240 193 297 322 36 83 14 85 -69 4 -115 -112 -362 -259 -551 -327 -93 -34
-279 -80 -332 -83 l-48 -2 -3 164 c-2 155 -1 165 18 178 22 16 27 62 8 81 -8
8 -8 15 2 27 9 10 10 19 3 26 -5 5 -91 11 -197 13 -200 3 -210 1 -186 -44 9
-16 9 -25 1 -33 -16 -16 -13 -55 4 -64 22 -13 35 -362 14 -364 -101 -10 -541
36 -734 77 -38 8 -80 17 -92 20 -35 7 -27 26 29 64 28 19 58 45 66 57 13 20
12 23 -2 29 -9 4 -47 -3 -84 -15 -161 -50 -301 -18 -560 131 -254 146 -409
291 -519 486 -20 36 -32 67 -27 72 5 5 102 -54 219 -131 116 -77 230 -149 254
-160 121 -57 361 -111 361 -81 0 4 -24 17 -53 30 -132 59 -306 201 -362 296
-21 35 -65 140 -65 153 0 2 10 3 21 3 33 0 176 -128 267 -238 67 -81 81 -48
37 84 -14 41 -25 79 -25 84 0 20 25 9 104 -48 44 -32 119 -83 166 -113 142
-93 387 -208 411 -193 6 3 -13 30 -40 59 -55 58 -69 103 -28 91 121 -35 274
-44 372 -21 184 42 203 68 58 78 -207 13 -427 131 -527 281 -37 55 -44 80 -26
91 9 6 108 -18 280 -66 174 -48 304 -70 470 -77 l165 -7 -2 -47 c-2 -26 -14
-71 -27 -100 -62 -137 -69 -177 -42 -243 12 -29 41 -55 60 -55 3 0 6 22 6 50
0 55 16 100 36 100 8 0 16 -10 18 -22 2 -13 9 -45 14 -73 6 -27 8 -53 6 -57
-3 -5 -21 -8 -40 -8 -41 0 -45 -16 -7 -31 29 -11 53 -6 53 11 0 6 14 29 32 51
28 35 32 46 31 102 -1 49 -9 80 -40 152 -22 50 -43 109 -47 133 -6 41 -5 43
29 59 19 9 34 22 32 27 -2 6 -39 23 -83 38 -117 40 -234 92 -234 103 0 6 62
23 138 38 112 22 163 27 282 27 155 0 249 13 355 51 64 22 82 43 48 53 -18 5
-213 45 -350 71 -52 10 -59 29 -21 56 63 45 90 74 142 154 54 84 61 97 95 184
21 54 26 92 14 104 -3 4 -31 -19 -62 -52 -31 -32 -82 -78 -113 -103 -99 -79
-321 -181 -413 -190 l-30 -3 0 260 0 260 22 3 c12 2 25 12 28 22 8 25 -4 69
-22 79 -14 7 -13 11 6 30 11 11 21 27 21 35 0 33 -25 36 -281 34 l-254 -3 -3
-26 c-2 -14 4 -31 12 -39 20 -16 20 -27 0 -47 -23 -24 -15 -77 13 -81 14 -2
25 -12 28 -25 3 -12 4 -139 3 -282 l-3 -260 -200 2 c-128 1 -231 7 -285 17
-47 8 -101 18 -120 21 -70 12 -80 16 -80 24 0 5 25 21 55 35 30 14 55 30 55
35 0 7 -43 11 -122 11 -232 0 -458 82 -727 262 -218 146 -360 303 -454 499
-45 93 -30 105 43 36 25 -23 89 -83 142 -134 100 -94 179 -150 198 -138 16 10
12 22 -25 70 -42 56 -98 173 -91 192 3 7 11 13 19 13 16 0 89 -45 177 -110
126 -93 324 -192 344 -173 2 3 -9 23 -25 46 -37 52 -26 66 33 42 42 -17 75
-24 211 -46 84 -14 106 -2 61 33 -242 190 -538 453 -528 469 11 19 91 8 159
-21 56 -24 195 -65 273 -80 70 -13 252 -13 308 1 56 14 57 35 2 44 -91 14
-188 61 -188 91 0 14 9 15 68 8 83 -11 307 -12 345 -1 15 4 27 11 27 16 0 5
-27 18 -61 31 -106 38 -255 137 -236 156 4 5 70 9 145 9 110 1 153 6 217 24
181 51 192 61 84 78 -111 18 -139 25 -139 32 0 4 27 20 61 36 168 80 339 261
436 465 52 110 93 263 73 275 -5 3 -30 -31 -57 -76 -86 -145 -252 -290 -473
-412 -112 -61 -349 -152 -470 -178 -266 -59 -448 -71 -641 -44 -372 52 -656
191 -916 448 -92 90 -83 99 41 42 42 -19 78 -35 81 -35 3 0 24 -9 48 -19 101
-45 224 -89 307 -110 45 -11 164 -31 188 -31 19 0 14 30 -5 36 -107 34 -236
129 -277 204 -41 75 -24 83 61 32 78 -47 157 -77 258 -96 161 -32 181 -28 118
26 -84 73 -127 117 -121 124 4 3 55 -1 114 -11 81 -13 141 -16 248 -12 124 4
152 8 239 37 113 38 124 56 40 65 -137 15 -310 74 -353 120 -34 36 -17 48 49
35 70 -13 245 -13 313 0 102 20 276 74 304 95 24 17 20 18 -100 40 -94 17
-129 30 -124 46 2 5 56 34 121 63 135 62 200 109 294 210 80 86 119 144 107
156 -5 5 -46 -15 -99 -48 -90 -57 -169 -91 -181 -79 -4 4 18 33 48 65 52 57
98 135 98 167 0 24 -25 17 -41 -11 -20 -39 -98 -105 -181 -155 -116 -69 -158
-90 -168 -84 -6 4 -10 59 -10 124 0 93 3 121 15 131 18 15 20 51 3 68 -9 9 -9
17 2 36 26 50 12 56 -127 57 -167 2 -294 -1 -315 -7 -22 -6 -24 -40 -3 -48 19
-7 19 -23 0 -42 -22 -23 -18 -49 10 -62 l25 -12 0 -184 c0 -211 12 -189 -110
-207 -182 -27 -421 -22 -585 12 -134 29 -196 49 -320 108 -232 110 -361 239
-413 411 -18 60 -26 197 -11 205 8 5 49 -32 122 -109 60 -65 135 -134 166
-155 116 -79 341 -174 341 -144 0 5 -27 35 -60 68 -60 59 -77 91 -42 81 193
-58 322 -61 457 -10 106 39 275 133 275 153 0 4 -78 7 -172 7 -186 -1 -236 7
-343 53 -69 30 -165 83 -165 92 0 3 59 12 132 20 130 14 173 31 111 44 -15 4
-37 10 -48 15 -11 4 -42 17 -70 27 -27 11 -50 26 -50 33 0 9 65 36 180 75 99
34 205 74 235 90 89 45 180 112 180 132 0 6 -52 8 -135 5 -93 -3 -135 -1 -135
6 0 6 19 24 43 41 49 34 147 134 204 207 70 91 145 256 168 371 12 63 -15 47
-132 -76 -63 -66 -121 -121 -129 -121 -12 0 -14 32 -14 183 l0 184 25 11 c21
10 25 18 25 58 0 37 -4 47 -20 51 -23 6 -27 23 -5 23 20 0 38 37 31 66 l-6 24
-263 0 c-191 0 -266 -3 -275 -12 -20 -20 -15 -69 8 -75 26 -7 25 -19 -1 -33
-16 -9 -19 -19 -17 -53 3 -35 7 -42 28 -47 l25 -6 3 -311 c2 -273 0 -311 -13
-317 -48 -18 -235 -55 -332 -66 -88 -10 -133 -10 -210 0 -230 28 -437 111
-527 211 -39 43 -97 145 -111 196 -6 23 9 41 20 23 4 -6 40 -33 81 -61 148
-100 284 -148 284 -101 0 28 7 31 48 16 49 -16 199 -37 213 -29 16 11 -8 33
-44 41 -36 8 -172 137 -162 154 4 6 27 8 60 4 56 -7 230 20 250 38 6 6 1 16
-15 28 -19 15 -22 20 -10 24 8 3 50 16 93 31 42 14 95 36 116 50 46 31 153
171 149 194 -5 23 -49 17 -95 -13 -190 -126 -553 -126 -791 0 -88 47 -183 124
-242 197 -93 115 -166 290 -130 312 5 3 44 -12 87 -33 43 -22 94 -45 113 -52
41 -16 76 -38 150 -99 30 -24 78 -54 105 -67 50 -23 145 -42 145 -30 0 4 -26
31 -57 60 -67 62 -65 81 5 61 65 -19 287 -31 296 -16 4 6 1 13 -6 15 -7 2 -41
10 -74 18 -122 30 -336 188 -387 286 -9 17 -24 46 -33 63 -11 21 -13 34 -6 41
11 11 40 -6 122 -73 104 -85 182 -115 340 -135 190 -23 219 -17 136 25 -54 28
-116 78 -116 94 0 9 37 12 133 12 222 0 394 54 251 79 -70 12 -184 47 -184 57
0 9 65 29 96 29 46 0 183 69 288 143 75 54 185 165 224 226 46 73 104 199 97
211 -11 18 -28 10 -86 -40 -84 -73 -166 -125 -254 -160 -14 -5 -35 -14 -47
-19 -37 -15 -159 -49 -216 -60 -180 -37 -424 17 -593 130 -65 44 -169 155
-169 182 0 22 -3 22 103 -14 78 -27 100 -30 151 -25 64 7 146 47 146 71 0 12
-14 15 -59 15 -177 0 -394 151 -518 359 -48 80 -51 91 -23 91 36 0 125 -59
220 -145 49 -45 158 -111 167 -101 3 3 -18 51 -46 107 -37 73 -49 105 -41 113
7 7 18 5 38 -7 96 -63 235 -90 331 -66 30 8 56 19 58 26 3 7 -15 22 -39 34
-58 29 -110 69 -106 81 2 5 48 11 103 12 111 3 172 21 262 78 131 84 157 138
51 106 -103 -32 -175 -41 -295 -35 -479 21 -765 312 -921 937 -16 63 -34 142
-41 175 -7 33 -16 74 -22 91 -11 38 -12 94 -1 94 5 0 29 -15 53 -32 47 -36
162 -116 310 -217 52 -35 111 -79 132 -98 66 -59 66 -44 -2 159 -107 320 -161
490 -156 498 7 11 210 154 458 321 65 44 117 85 115 90 -2 7 -129 10 -364 9
-381 -1 -374 -1 -387 45 -15 56 -73 244 -107 345 -21 63 -48 149 -60 190 -34
117 -48 133 -67 78z m-15 -3577 c4 -26 29 -38 45 -22 12 12 57 15 57 4 0 -4
-14 -21 -31 -39 -35 -36 -32 -54 10 -54 34 0 67 -23 56 -39 -5 -9 -22 -11 -56
-6 -53 7 -50 10 -69 -62 -18 -71 -44 -55 -52 32 -3 28 -6 30 -41 28 -20 -1
-49 2 -63 7 -22 9 -24 13 -14 25 7 8 25 15 40 15 57 0 77 23 45 50 -21 17 -19
30 4 30 12 0 23 11 30 31 12 35 34 35 39 0z m38 -1666 c20 -30 35 -32 52 -5
13 21 37 26 47 10 3 -5 -1 -20 -10 -33 -19 -30 -12 -51 22 -66 l25 -12 -33
-33 c-34 -34 -34 -34 -50 -13 -23 28 -49 16 -49 -23 0 -24 -4 -30 -21 -30 -19
0 -20 5 -17 48 l3 47 -35 0 c-28 0 -35 4 -35 20 0 14 8 21 28 23 33 4 43 22
27 51 -23 43 19 57 46 16z m-102 -976 c16 -19 26 -43 26 -63 0 -27 6 -35 33
-48 47 -23 95 -65 125 -112 23 -35 26 -52 27 -121 0 -76 -2 -83 -38 -136 -96
-144 -261 -170 -387 -61 -133 113 -112 337 38 413 45 22 60 39 55 60 -3 11 5
36 21 59 33 50 63 53 100 9z m-844 -1195 c0 -19 5 -24 24 -24 28 0 44 -19 26
-30 -7 -5 -9 -16 -5 -29 6 -19 3 -22 -21 -19 -22 2 -29 -2 -33 -20 -9 -33 -25
-32 -31 3 -4 23 -11 30 -30 31 -41 2 -43 3 -30 18 6 8 10 25 8 38 -3 20 1 23
30 20 26 -3 32 0 32 16 0 10 3 22 6 25 12 11 24 -3 24 -29z m1289 4 c5 -13 14
-42 21 -66 l11 -43 61 3 c39 2 62 -1 65 -8 2 -6 -19 -26 -47 -44 -27 -18 -50
-36 -50 -40 0 -5 11 -30 24 -56 36 -72 13 -88 -47 -34 -44 39 -61 38 -108 -5
-22 -19 -44 -35 -49 -35 -21 0 -21 29 -1 69 12 22 21 47 21 55 0 7 -22 28 -50
46 -70 45 -67 62 11 58 l61 -3 15 40 c28 76 33 85 43 85 6 0 14 -10 19 -22z
m-811 -652 c87 -54 125 -169 87 -259 -62 -148 -227 -191 -344 -90 -55 46 -71
84 -71 163 0 56 4 73 28 111 16 24 38 52 50 62 59 53 177 59 250 13z m1842 9
c5 -14 16 -25 25 -25 27 0 16 -19 -25 -45 -45 -28 -49 -35 -21 -35 11 0 32 13
47 29 25 27 44 32 44 12 0 -5 -12 -20 -27 -35 -28 -29 -24 -42 16 -48 35 -4
37 -26 6 -40 -23 -10 -29 -10 -40 5 -18 25 -25 21 -25 -17 0 -35 -21 -63 -40
-51 -5 3 -10 15 -10 26 0 11 -5 29 -10 40 -9 16 -14 17 -33 6 -12 -6 -25 -16
-28 -21 -4 -5 -13 -5 -20 -1 -9 6 -5 14 16 31 l28 23 -26 35 c-36 47 -34 55
13 53 41 -2 57 12 74 66 8 25 25 21 36 -8z m-596 -498 c51 -102 57 -147 26
-187 -32 -41 -26 -57 33 -76 85 -27 119 -49 175 -108 80 -84 105 -149 106
-266 0 -125 -24 -188 -104 -274 -85 -91 -174 -131 -290 -130 -289 1 -475 253
-388 527 34 110 145 216 258 248 69 19 74 28 45 71 -35 52 -32 96 10 180 47
92 58 108 71 108 6 0 32 -42 58 -93z m-2273 -305 c7 -54 20 -68 48 -52 27 14
73 10 79 -7 2 -7 -13 -22 -32 -34 -20 -11 -36 -26 -36 -32 0 -6 14 -26 32 -44
38 -39 32 -49 -19 -36 -21 6 -45 12 -53 14 -11 3 -16 -7 -18 -43 -3 -54 -27
-67 -38 -20 -3 15 -7 33 -10 40 -4 14 -30 16 -39 2 -8 -13 -42 -13 -50 0 -4 6
5 24 19 41 35 42 33 55 -15 79 -54 28 -46 45 22 45 50 0 54 2 57 25 6 56 13
71 30 68 12 -2 19 -16 23 -46z m680 -646 c53 -22 90 -56 110 -100 45 -99 4
-208 -96 -255 -163 -77 -326 82 -255 247 25 57 40 74 96 102 47 23 99 25 145
6z m2345 -503 c15 -72 20 -78 50 -74 65 7 78 6 82 -10 2 -10 -10 -22 -31 -32
-62 -30 -64 -40 -23 -103 20 -30 34 -59 31 -64 -14 -22 -51 -8 -90 34 l-41 45
-35 -47 c-18 -25 -40 -47 -46 -50 -22 -6 -26 27 -10 66 32 76 32 79 -13 102
-23 11 -44 28 -47 36 -8 21 16 35 47 27 54 -14 63 -10 72 32 5 22 10 46 13 53
8 22 35 13 41 -15z m-1498 -278 c7 -25 12 -56 12 -69 0 -13 7 -29 15 -36 13
-11 25 -6 70 24 63 41 108 55 121 35 7 -12 -19 -40 -98 -102 -15 -12 -28 -32
-28 -43 0 -23 23 -35 103 -55 26 -6 49 -15 52 -19 8 -13 -19 -70 -34 -70 -9 0
-46 12 -83 26 -36 15 -73 24 -81 21 -10 -4 -14 -27 -15 -88 -1 -59 -5 -87 -16
-97 -27 -27 -43 1 -50 87 -4 44 -13 84 -20 90 -8 7 -30 1 -74 -22 -50 -25 -66
-30 -80 -21 -21 14 -19 46 3 59 100 59 103 75 22 119 -55 30 -75 54 -62 76 8
12 31 7 92 -21 76 -34 93 -21 93 75 1 86 38 106 58 31z m-1898 -199 c0 -18 6
-40 13 -50 12 -17 15 -17 50 0 29 14 41 15 62 6 30 -14 32 -28 7 -36 -11 -4
-29 -17 -41 -30 l-22 -24 30 -22 c52 -36 37 -71 -19 -44 -38 20 -48 12 -52
-41 -2 -32 -7 -40 -23 -40 -17 0 -20 8 -23 48 -3 49 -18 61 -42 32 -13 -16
-65 -21 -74 -7 -3 5 8 22 24 37 17 16 30 34 30 40 0 5 -18 21 -40 35 -64 40
-51 70 20 45 23 -8 46 -12 51 -9 5 3 9 27 9 53 0 26 3 51 7 54 13 13 33 -16
33 -47z m1291 -583 c61 -88 68 -154 23 -204 -22 -24 -13 -34 48 -54 244 -79
315 -389 131 -573 -74 -73 -129 -96 -238 -96 -79 0 -97 4 -147 29 -160 79
-236 238 -194 403 29 113 102 191 218 234 32 11 58 27 58 34 0 7 -9 28 -20 46
-11 18 -20 46 -20 61 0 47 68 167 95 167 8 0 29 -21 46 -47z m1592 -30 c8 -16
22 -51 31 -80 l17 -52 81 -3 c48 -2 83 -8 85 -14 2 -6 -13 -23 -34 -37 -21
-14 -51 -37 -67 -50 l-28 -24 25 -74 c14 -41 22 -78 17 -83 -4 -4 -35 10 -68
33 -34 23 -69 41 -79 41 -10 0 -40 -18 -68 -40 -52 -41 -69 -48 -80 -29 -7 10
2 39 31 106 8 17 12 37 9 45 -3 7 -35 33 -70 58 -36 24 -64 48 -62 54 2 6 38
12 84 14 90 3 87 1 118 96 25 78 35 84 58 39z m987 -79 c4 -23 11 -30 34 -32
16 -2 33 1 39 7 16 16 27 13 27 -7 0 -11 -9 -27 -20 -37 -21 -19 -27 -45 -10
-45 16 0 33 -41 22 -52 -6 -6 -12 -6 -16 1 -15 23 -46 11 -60 -24 -18 -42 -33
-45 -42 -7 -12 54 -11 54 -43 37 -17 -8 -35 -15 -41 -15 -18 0 -11 39 10 52
28 18 25 30 -11 57 -37 27 -31 36 24 36 37 0 41 2 49 33 11 40 31 38 38 -4z
m-3706 -472 c44 -30 85 -101 86 -146 0 -46 -21 -105 -49 -133 -33 -33 -97 -63
-136 -63 -81 0 -168 80 -181 165 -22 149 157 263 280 177z m1726 -753 c0 -7 9
-9 24 -5 12 3 26 3 29 0 7 -8 -11 -46 -27 -56 -7 -5 -3 -13 12 -24 17 -12 21
-19 13 -27 -8 -8 -14 -8 -23 1 -17 17 -26 15 -33 -8 -3 -11 -12 -20 -20 -20
-7 0 -15 9 -18 20 -3 12 -14 20 -26 20 -23 0 -27 10 -9 28 8 8 8 15 -1 26 -14
17 1 31 25 22 10 -4 18 1 21 14 6 21 33 28 33 9z m1780 -21 c5 -13 11 -39 15
-59 8 -52 25 -64 68 -48 36 12 67 8 67 -11 0 -6 -20 -20 -45 -32 -25 -12 -45
-28 -45 -36 0 -7 20 -22 45 -33 30 -14 45 -26 45 -39 0 -29 -17 -33 -49 -11
-16 12 -41 21 -55 21 -23 0 -26 -4 -26 -38 0 -47 -19 -76 -43 -66 -13 5 -17
18 -17 60 0 49 -2 54 -22 54 -13 0 -36 -7 -52 -15 -68 -36 -96 -7 -32 32 26
15 46 33 46 40 0 6 -20 21 -45 33 -62 30 -61 54 3 46 106 -14 97 -17 100 44 1
30 5 61 7 68 7 19 25 14 35 -10z m-806 -66 c175 -95 166 -345 -16 -436 -164
-82 -353 35 -352 219 0 68 20 120 62 167 82 90 197 109 306 50z m-2214 -318
c6 -14 10 -36 10 -50 0 -35 27 -41 72 -15 64 37 82 1 23 -46 -19 -15 -35 -33
-35 -40 0 -6 20 -24 45 -40 71 -44 52 -80 -26 -49 -22 9 -45 14 -50 11 -5 -4
-9 -31 -9 -61 0 -41 -4 -56 -16 -61 -23 -8 -44 23 -44 63 0 46 -13 49 -66 20
-26 -14 -50 -23 -55 -20 -19 11 -8 40 26 67 19 15 35 33 35 40 0 7 -20 23 -45
37 -25 14 -45 30 -45 38 0 18 28 26 44 12 8 -6 30 -10 48 -8 32 3 33 5 38 53
8 77 31 99 50 49z m3967 -455 c53 -29 101 -76 126 -124 31 -58 29 -172 -3
-239 -99 -206 -389 -207 -486 -1 -28 59 -33 162 -10 216 37 87 104 147 191
170 47 13 140 2 182 -22z m-3141 -204 c11 -17 15 -37 11 -61 -6 -34 -4 -36 36
-54 69 -31 124 -76 153 -126 68 -116 7 -293 -121 -353 -94 -44 -236 -15 -300
61 -120 142 -67 351 105 418 44 17 44 18 41 63 -2 37 1 48 21 61 30 21 35 20
54 -9z m1753 -320 c100 -35 161 -120 161 -223 0 -71 -18 -119 -65 -171 -51
-56 -124 -85 -200 -79 -139 12 -224 105 -224 248 -1 68 23 122 76 173 67 64
163 84 252 52z m-3292 -20 c50 -21 72 -42 94 -90 66 -143 -54 -293 -199 -250
-166 50 -180 270 -22 339 45 20 82 20 127 1z"/>
<path d="M11706 14848 c-2 -7 -9 -44 -16 -83 -14 -78 -18 -87 -70 -200 -100
-213 -104 -319 -16 -419 59 -66 76 -59 76 27 0 77 18 173 35 187 30 25 64 -72
65 -182 0 -37 5 -70 11 -74 18 -11 84 63 102 114 35 97 18 191 -63 352 -46 91
-66 144 -90 237 -11 44 -27 64 -34 41z"/>
<path d="M11687 14054 c-4 -4 -7 -33 -7 -65 0 -61 7 -69 60 -69 42 0 51 19 43
81 l-8 54 -40 3 c-23 2 -44 0 -48 -4z"/>
<path d="M7351 13668 c-5 -13 -17 -50 -26 -83 -10 -33 -35 -98 -55 -145 -60
-132 -73 -184 -67 -245 6 -60 52 -139 86 -148 28 -7 31 -1 31 59 0 68 17 149
35 164 24 20 47 -42 50 -137 2 -47 6 -87 8 -90 14 -13 51 13 78 55 25 40 29
55 29 119 0 84 -14 128 -94 306 -15 33 -31 81 -37 108 -12 57 -25 70 -38 37z"/>
<path d="M7330 12991 c-11 -22 -13 -61 -4 -85 7 -19 64 -22 82 -4 18 18 14 73
-6 91 -25 23 -59 21 -72 -2z"/>
<path d="M12430 12985 c-6 -14 -10 -34 -10 -43 0 -22 -25 -92 -56 -159 -68
-150 -82 -259 -43 -340 23 -47 58 -77 80 -68 10 4 15 29 16 95 1 49 7 99 13
110 27 50 62 -13 68 -123 3 -42 9 -80 13 -83 17 -10 44 7 69 44 23 33 25 47
25 137 l0 100 -52 105 c-29 58 -61 135 -73 172 -25 78 -36 90 -50 53z"/>
<path d="M12415 12309 c-15 -28 -15 -33 0 -55 12 -19 21 -23 43 -18 48 10 52
13 52 39 0 42 -17 65 -50 65 -23 0 -33 -7 -45 -31z"/>
<path d="M6261 11313 c-6 -21 -11 -47 -11 -58 0 -26 -38 -129 -85 -230 -39
-86 -75 -209 -75 -260 0 -58 30 -136 69 -178 51 -54 71 -47 71 26 0 62 17 162
33 195 30 62 65 -10 75 -152 5 -68 11 -101 20 -104 20 -6 86 69 100 115 15 50
16 175 1 226 -5 21 -32 84 -58 140 -59 128 -73 166 -99 276 -11 48 -29 49 -41
4z"/>
<path d="M6241 10496 c-7 -8 -11 -37 -9 -68 l3 -53 50 0 50 0 3 47 c4 64 -10
88 -52 88 -19 0 -39 -6 -45 -14z"/>
<path d="M13749 10443 c-6 -15 -13 -44 -16 -63 -4 -19 -33 -98 -66 -175 -60
-139 -61 -140 -61 -240 -1 -94 1 -102 28 -143 27 -40 68 -63 84 -47 4 4 8 45
8 91 3 196 81 188 83 -9 1 -86 12 -101 55 -74 38 25 66 98 66 169 0 80 -17
144 -68 255 -45 96 -66 158 -76 215 -9 48 -23 57 -37 21z"/>
<path d="M13745 9717 c-12 -10 -18 -28 -19 -57 -1 -39 2 -44 27 -51 39 -10 77
5 77 31 0 11 -7 36 -14 55 -16 38 -39 45 -71 22z"/>
<path d="M5972 8488 c-15 -15 -15 -61 0 -76 7 -7 27 -12 45 -12 26 0 34 5 39
25 3 14 3 36 0 50 -5 20 -13 25 -39 25 -18 0 -38 -5 -45 -12z"/>
<path d="M15087 6973 c-4 -3 -7 -17 -7 -29 0 -32 -34 -123 -86 -229 -56 -117
-74 -176 -74 -253 0 -74 28 -142 72 -173 46 -33 54 -22 61 85 6 93 26 156 48
156 19 0 41 -74 46 -162 4 -64 10 -91 20 -95 19 -8 59 32 84 84 18 38 21 57
17 136 -3 84 -8 101 -50 192 -63 137 -73 160 -88 233 -13 57 -26 73 -43 55z"/>
<path d="M4990 6634 c-6 -14 -10 -36 -10 -48 0 -33 -37 -139 -80 -231 -58
-123 -72 -173 -78 -266 -4 -72 -1 -93 18 -136 25 -60 81 -118 104 -110 12 5
16 21 17 64 1 80 21 184 40 214 14 20 19 22 32 11 26 -22 47 -113 47 -200 0
-45 5 -84 10 -87 19 -12 69 35 94 88 32 66 42 146 26 222 -6 33 -43 125 -80
205 -38 80 -78 180 -91 223 -12 42 -26 77 -31 77 -5 0 -13 -12 -18 -26z"/>
<path d="M15066 6214 c-16 -15 -22 -78 -10 -108 4 -11 19 -16 45 -16 33 0 41
4 49 25 10 27 3 82 -13 103 -13 17 -52 15 -71 -4z"/>
<path d="M4993 5792 c-16 -10 -33 -57 -33 -92 0 -35 23 -50 75 -50 46 0 59 26
48 95 -8 48 -10 50 -43 53 -19 1 -40 -1 -47 -6z"/>
</g>
</svg>
